<svg xmlns="http://www.w3.org/2000/svg" xmlns:xlink="http://www.w3.org/1999/xlink">

  <symbol id="menu" viewBox="0 0 24 24">
    <path d="M2.25 12C2.25 10.4812 3.48122 9.25 5 9.25C6.51878 9.25 7.75 10.4812 7.75 12C7.75 13.5188 6.51878 14.75 5 14.75C3.48122 14.75 2.25 13.5188 2.25 12ZM5 10.75C4.30964 10.75 3.75 11.3096 3.75 12C3.75 12.6904 4.30964 13.25 5 13.25C5.69036 13.25 6.25 12.6904 6.25 12C6.25 11.3096 5.69036 10.75 5 10.75Z" />
    <path d="M9.25 12C9.25 10.4812 10.4812 9.25 12 9.25C13.5188 9.25 14.75 10.4812 14.75 12C14.75 13.5188 13.5188 14.75 12 14.75C10.4812 14.75 9.25 13.5188 9.25 12ZM12 10.75C11.3096 10.75 10.75 11.3096 10.75 12C10.75 12.6904 11.3096 13.25 12 13.25C12.6904 13.25 13.25 12.6904 13.25 12C13.25 11.3096 12.6904 10.75 12 10.75Z" />
    <path d="M19 9.25C17.4812 9.25 16.25 10.4812 16.25 12C16.25 13.5188 17.4812 14.75 19 14.75C20.5188 14.75 21.75 13.5188 21.75 12C21.75 10.4812 20.5188 9.25 19 9.25ZM17.75 12C17.75 11.3096 18.3096 10.75 19 10.75C19.6904 10.75 20.25 11.3096 20.25 12C20.25 12.6904 19.6904 13.25 19 13.25C18.3096 13.25 17.75 12.6904 17.75 12Z" />
  </symbol>

  <symbol id="delete" viewBox="0 0 24 24">
    <path d="m12 2.75C11.0215 2.75 10.1871 3.37503 9.87787 4.24993C9.73983 4.64047 9.31134 4.84517 8.9208 4.70713C8.53026 4.56909 8.32557 4.1406 8.46361 3.75007C8.97804 2.29459 10.3661 1.25 12 1.25C13.634 1.25 15.022 2.29459 15.5365 3.75007C15.6745 4.1406 15.4698 4.56909 15.0793 4.70713C14.6887 4.84517 14.2602 4.64047 14.1222 4.24993C13.813 3.37503 12.9785 2.75 12 2.75Z" />
    <path d="m2.75 6C2.75 5.58579 3.08579 5.25 3.5 5.25H20.5001C20.9143 5.25 21.2501 5.58579 21.2501 6C21.2501 6.41421 20.9143 6.75 20.5001 6.75H3.5C3.08579 6.75 2.75 6.41421 2.75 6Z" />
    <path d="m5.91508 8.45011C5.88753 8.03681 5.53015 7.72411 5.11686 7.75166C4.70356 7.77921 4.39085 8.13659 4.41841 8.54989L4.88186 15.5016C4.96735 16.7844 5.03641 17.8205 5.19838 18.6336C5.36678 19.4789 5.6532 20.185 6.2448 20.7384C6.83639 21.2919 7.55994 21.5307 8.41459 21.6425C9.23663 21.75 10.2751 21.75 11.5607 21.75H12.4395C13.7251 21.75 14.7635 21.75 15.5856 21.6425C16.4402 21.5307 17.1638 21.2919 17.7554 20.7384C18.347 20.185 18.6334 19.4789 18.8018 18.6336C18.9637 17.8205 19.0328 16.7844 19.1183 15.5016L19.5818 8.54989C19.6093 8.13659 19.2966 7.77921 18.8833 7.75166C18.47 7.72411 18.1126 8.03681 18.0851 8.45011L17.6251 15.3492C17.5353 16.6971 17.4712 17.6349 17.3307 18.3405C17.1943 19.025 17.004 19.3873 16.7306 19.6431C16.4572 19.8988 16.083 20.0647 15.391 20.1552C14.6776 20.2485 13.7376 20.25 12.3868 20.25H11.6134C10.2626 20.25 9.32255 20.2485 8.60915 20.1552C7.91715 20.0647 7.54299 19.8988 7.26957 19.6431C6.99616 19.3873 6.80583 19.025 6.66948 18.3405C6.52891 17.6349 6.46488 16.6971 6.37503 15.3492L5.91508 8.45011Z" />
    <path d="m9.42546 10.2537C9.83762 10.2125 10.2051 10.5132 10.2464 10.9254L10.7464 15.9254C10.7876 16.3375 10.4869 16.7051 10.0747 16.7463C9.66256 16.7875 9.29502 16.4868 9.25381 16.0746L8.75381 11.0746C8.71259 10.6625 9.0133 10.2949 9.42546 10.2537Z" />
    <path d="m15.2464 11.0746C15.2876 10.6625 14.9869 10.2949 14.5747 10.2537C14.1626 10.2125 13.795 10.5132 13.7538 10.9254L13.2538 15.9254C13.2126 16.3375 13.5133 16.7051 13.9255 16.7463C14.3376 16.7875 14.7051 16.4868 14.7464 16.0746L15.2464 11.0746Z" />
  </symbol>

  <symbol id="clear" viewBox="0 0 24 24">
    <path fill-rule="evenodd" d="M13.0828 19.0632C12.6389 19.5072 12.2399 19.9062 11.8725 20.25H21C21.4142 20.25 21.75 20.5858 21.75 21C21.75 21.4142 21.4142 21.75 21 21.75H9C8.98166 21.75 8.96347 21.7493 8.94546 21.748C8.24156 21.7211 7.64439 21.4169 7.05863 20.97C6.47124 20.5218 5.81539 19.866 5.01269 19.0632L4.93674 18.9873C4.13402 18.1846 3.47815 17.5288 3.03 16.9414C2.56159 16.3274 2.25 15.701 2.25 14.9522C2.25 14.2035 2.56159 13.577 3.03 12.9631C3.47816 12.3757 4.13402 11.7199 4.93674 10.9172L10.9172 4.93674C11.7199 4.13403 12.3757 3.47815 12.9631 3.03C13.577 2.56159 14.2035 2.25 14.9522 2.25C15.701 2.25 16.3274 2.56159 16.9414 3.03C17.5288 3.47816 18.1846 4.13402 18.9873 4.93674L19.0632 5.01269C19.866 5.81539 20.5218 6.47124 20.97 7.05863C21.4384 7.67256 21.75 8.29902 21.75 9.04776C21.75 9.79649 21.4384 10.423 20.97 11.0369C20.5219 11.6243 19.866 12.2801 19.0633 13.0827L13.0828 19.0632ZM11.9399 6.03539C12.7899 5.18538 13.3752 4.60235 13.873 4.22253C14.3535 3.85592 14.6633 3.75 14.9522 3.75C15.2411 3.75 15.551 3.85592 16.0315 4.22253C16.5293 4.60235 17.1146 5.18538 17.9646 6.03539C18.8146 6.88541 19.3977 7.47069 19.7775 7.9685C20.1441 8.449 20.25 8.75886 20.25 9.04776C20.25 9.33665 20.1441 9.64651 19.7775 10.127C19.3977 10.6248 18.8146 11.2101 17.9646 12.0601L13.7713 16.2534L7.74662 10.2287L11.9399 6.03539ZM9.04776 20.25C9.33665 20.25 9.64651 20.1441 10.127 19.7775C10.6248 19.3977 11.2101 18.8146 12.0601 17.9646L12.7107 17.314L6.68596 11.2893L6.03539 11.9399C5.18538 12.7899 4.60235 13.3752 4.22253 13.873C3.85592 14.3535 3.75 14.6633 3.75 14.9522C3.75 15.2411 3.85592 15.551 4.22253 16.0315C4.60235 16.5293 5.18538 17.1146 6.03539 17.9646C6.88541 18.8146 7.47069 19.3977 7.9685 19.7775C8.449 20.1441 8.75886 20.25 9.04776 20.25Z" />
  </symbol>

  <symbol id="close" viewBox="0 0 24 24">
    <path d="m 5.8607761,4.8000557 c -0.29289,-0.29289 -0.76777,-0.29289 -1.06066,0 -0.29289,0.29289 -0.29289,0.76777 0,1.06063 l 6.0800769,6.0302243 -6.08021,6.248521 c -0.29289,0.2929 -0.29289,0.7677 0,1.0606 0.29289,0.2929 0.7677625,0.293546 1.0606325,6.46e-4 l 6.1393765,-6.139331 6.139397,6.139015 c 0.292909,0.292891 0.7678,0.2929 1.0607,0 0.2929,-0.2929 0.2929,-0.7678 0,-1.0606 l -6.139497,-6.139115 6.139377,-6.1392653 c 0.2929,-0.29284 0.292908,-0.7683656 8e-6,-1.0612556 -0.2929,-0.29289 -0.7678,-0.29289 -1.0607,0 l -6.169851,6.1190609 z" />
  </symbol>

  <symbol id="settings" viewBox="0 0 24 24">
    <path d="M12 8.25C9.92894 8.25 8.25 9.92893 8.25 12C8.25 14.0711 9.92894 15.75 12 15.75C14.0711 15.75 15.75 14.0711 15.75 12C15.75 9.92893 14.0711 8.25 12 8.25ZM9.75 12C9.75 10.7574 10.7574 9.75 12 9.75C13.2426 9.75 14.25 10.7574 14.25 12C14.25 13.2426 13.2426 14.25 12 14.25C10.7574 14.25 9.75 13.2426 9.75 12Z" />
    <path d="M11.9747 1.25C11.5303 1.24999 11.1592 1.24999 10.8546 1.27077C10.5375 1.29241 10.238 1.33905 9.94761 1.45933C9.27379 1.73844 8.73843 2.27379 8.45932 2.94762C8.31402 3.29842 8.27467 3.66812 8.25964 4.06996C8.24756 4.39299 8.08454 4.66251 7.84395 4.80141C7.60337 4.94031 7.28845 4.94673 7.00266 4.79568C6.64714 4.60777 6.30729 4.45699 5.93083 4.40743C5.20773 4.31223 4.47642 4.50819 3.89779 4.95219C3.64843 5.14353 3.45827 5.3796 3.28099 5.6434C3.11068 5.89681 2.92517 6.21815 2.70294 6.60307L2.67769 6.64681C2.45545 7.03172 2.26993 7.35304 2.13562 7.62723C1.99581 7.91267 1.88644 8.19539 1.84541 8.50701C1.75021 9.23012 1.94617 9.96142 2.39016 10.5401C2.62128 10.8412 2.92173 11.0602 3.26217 11.2741C3.53595 11.4461 3.68788 11.7221 3.68786 12C3.68785 12.2778 3.53592 12.5538 3.26217 12.7258C2.92169 12.9397 2.62121 13.1587 2.39007 13.4599C1.94607 14.0385 1.75012 14.7698 1.84531 15.4929C1.88634 15.8045 1.99571 16.0873 2.13552 16.3727C2.26983 16.6469 2.45535 16.9682 2.67758 17.3531L2.70284 17.3969C2.92507 17.7818 3.11058 18.1031 3.28089 18.3565C3.45817 18.6203 3.64833 18.8564 3.89769 19.0477C4.47632 19.4917 5.20763 19.6877 5.93073 19.5925C6.30717 19.5429 6.647 19.3922 7.0025 19.2043C7.28833 19.0532 7.60329 19.0596 7.8439 19.1986C8.08452 19.3375 8.24756 19.607 8.25964 19.9301C8.27467 20.3319 8.31403 20.7016 8.45932 21.0524C8.73843 21.7262 9.27379 22.2616 9.94761 22.5407C10.238 22.661 10.5375 22.7076 10.8546 22.7292C11.1592 22.75 11.5303 22.75 11.9747 22.75H12.0252C12.4697 22.75 12.8407 22.75 13.1454 22.7292C13.4625 22.7076 13.762 22.661 14.0524 22.5407C14.7262 22.2616 15.2616 21.7262 15.5407 21.0524C15.686 20.7016 15.7253 20.3319 15.7403 19.93C15.7524 19.607 15.9154 19.3375 16.156 19.1985C16.3966 19.0596 16.7116 19.0532 16.9974 19.2042C17.3529 19.3921 17.6927 19.5429 18.0692 19.5924C18.7923 19.6876 19.5236 19.4917 20.1022 19.0477C20.3516 18.8563 20.5417 18.6203 20.719 18.3565C20.8893 18.1031 21.0748 17.7818 21.297 17.3969L21.3223 17.3531C21.5445 16.9682 21.7301 16.6468 21.8644 16.3726C22.0042 16.0872 22.1135 15.8045 22.1546 15.4929C22.2498 14.7697 22.0538 14.0384 21.6098 13.4598C21.3787 13.1586 21.0782 12.9397 20.7378 12.7258C20.464 12.5538 20.3121 12.2778 20.3121 11.9999C20.3121 11.7221 20.464 11.4462 20.7377 11.2742C21.0783 11.0603 21.3788 10.8414 21.6099 10.5401C22.0539 9.96149 22.2499 9.23019 22.1547 8.50708C22.1136 8.19546 22.0043 7.91274 21.8645 7.6273C21.7302 7.35313 21.5447 7.03183 21.3224 6.64695L21.2972 6.60318C21.0749 6.21825 20.8894 5.89688 20.7191 5.64347C20.5418 5.37967 20.3517 5.1436 20.1023 4.95225C19.5237 4.50826 18.7924 4.3123 18.0692 4.4075C17.6928 4.45706 17.353 4.60782 16.9975 4.79572C16.7117 4.94679 16.3967 4.94036 16.1561 4.80144C15.9155 4.66253 15.7524 4.39297 15.7403 4.06991C15.7253 3.66808 15.686 3.2984 15.5407 2.94762C15.2616 2.27379 14.7262 1.73844 14.0524 1.45933C13.762 1.33905 13.4625 1.29241 13.1454 1.27077C12.8407 1.24999 12.4697 1.24999 12.0252 1.25H11.9747ZM10.5216 2.84515C10.5988 2.81319 10.716 2.78372 10.9567 2.76729C11.2042 2.75041 11.5238 2.75 12 2.75C12.4762 2.75 12.7958 2.75041 13.0432 2.76729C13.284 2.78372 13.4012 2.81319 13.4783 2.84515C13.7846 2.97202 14.028 3.21536 14.1548 3.52165C14.1949 3.61826 14.228 3.76887 14.2414 4.12597C14.271 4.91835 14.68 5.68129 15.4061 6.10048C16.1321 6.51968 16.9974 6.4924 17.6984 6.12188C18.0143 5.9549 18.1614 5.90832 18.265 5.89467C18.5937 5.8514 18.9261 5.94047 19.1891 6.14228C19.2554 6.19312 19.3395 6.27989 19.4741 6.48016C19.6125 6.68603 19.7726 6.9626 20.0107 7.375C20.2488 7.78741 20.4083 8.06438 20.5174 8.28713C20.6235 8.50382 20.6566 8.62007 20.6675 8.70287C20.7108 9.03155 20.6217 9.36397 20.4199 9.62698C20.3562 9.70995 20.2424 9.81399 19.9397 10.0041C19.2684 10.426 18.8122 11.1616 18.8121 11.9999C18.8121 12.8383 19.2683 13.574 19.9397 13.9959C20.2423 14.186 20.3561 14.29 20.4198 14.373C20.6216 14.636 20.7107 14.9684 20.6674 15.2971C20.6565 15.3799 20.6234 15.4961 20.5173 15.7128C20.4082 15.9355 20.2487 16.2125 20.0106 16.6249C19.7725 17.0373 19.6124 17.3139 19.474 17.5198C19.3394 17.72 19.2553 17.8068 19.189 17.8576C18.926 18.0595 18.5936 18.1485 18.2649 18.1053C18.1613 18.0916 18.0142 18.045 17.6983 17.8781C16.9973 17.5075 16.132 17.4803 15.4059 17.8995C14.68 18.3187 14.271 19.0816 14.2414 19.874C14.228 20.2311 14.1949 20.3817 14.1548 20.4784C14.028 20.7846 13.7846 21.028 13.4783 21.1549C13.4012 21.1868 13.284 21.2163 13.0432 21.2327C12.7958 21.2496 12.4762 21.25 12 21.25C11.5238 21.25 11.2042 21.2496 10.9567 21.2327C10.716 21.2163 10.5988 21.1868 10.5216 21.1549C10.2154 21.028 9.97201 20.7846 9.84514 20.4784C9.80512 20.3817 9.77195 20.2311 9.75859 19.874C9.72896 19.0817 9.31997 18.3187 8.5939 17.8995C7.86784 17.4803 7.00262 17.5076 6.30158 17.8781C5.98565 18.0451 5.83863 18.0917 5.73495 18.1053C5.40626 18.1486 5.07385 18.0595 4.81084 17.8577C4.74458 17.8069 4.66045 17.7201 4.52586 17.5198C4.38751 17.314 4.22736 17.0374 3.98926 16.625C3.75115 16.2126 3.59171 15.9356 3.4826 15.7129C3.37646 15.4962 3.34338 15.3799 3.33248 15.2971C3.28921 14.9684 3.37828 14.636 3.5801 14.373C3.64376 14.2901 3.75761 14.186 4.0602 13.9959C4.73158 13.5741 5.18782 12.8384 5.18786 12.0001C5.18791 11.1616 4.73165 10.4259 4.06021 10.004C3.75769 9.81389 3.64385 9.70987 3.58019 9.62691C3.37838 9.3639 3.28931 9.03149 3.33258 8.7028C3.34348 8.62001 3.37656 8.50375 3.4827 8.28707C3.59181 8.06431 3.75125 7.78734 3.98935 7.37493C4.22746 6.96253 4.3876 6.68596 4.52596 6.48009C4.66055 6.27983 4.74468 6.19305 4.81093 6.14222C5.07395 5.9404 5.40636 5.85133 5.73504 5.8946C5.83873 5.90825 5.98576 5.95483 6.30173 6.12184C7.00273 6.49235 7.86791 6.51962 8.59394 6.10045C9.31998 5.68128 9.72896 4.91837 9.75859 4.12602C9.77195 3.76889 9.80512 3.61827 9.84514 3.52165C9.97201 3.21536 10.2154 2.97202 10.5216 2.84515Z" />
  </symbol>

  <symbol id="history" viewBox="0 0 24 24">
    <path d="M11.25 2C11.25 1.58579 11.5858 1.25 12 1.25C17.9371 1.25 22.75 6.06294 22.75 12C22.75 17.9371 17.9371 22.75 12 22.75C6.06294 22.75 1.25 17.9371 1.25 12C1.25 11.5858 1.58579 11.25 2 11.25C2.41421 11.25 2.75 11.5858 2.75 12C2.75 17.1086 6.89137 21.25 12 21.25C17.1086 21.25 21.25 17.1086 21.25 12C21.25 6.89137 17.1086 2.75 12 2.75C11.5858 2.75 11.25 2.41421 11.25 2ZM12 8.25C12.4142 8.25 12.75 8.58579 12.75 9V12.25H16C16.4142 12.25 16.75 12.5858 16.75 13C16.75 13.4142 16.4142 13.75 16 13.75H12C11.5858 13.75 11.25 13.4142 11.25 13V9C11.25 8.58579 11.5858 8.25 12 8.25Z" />
    <path d="M9.09958 2.39754C9.24874 2.78396 9.05641 3.21814 8.66999 3.36731C8.52855 3.42191 8.38879 3.47988 8.2508 3.54114C7.87221 3.70921 7.42906 3.53856 7.261 3.15997C7.09293 2.78139 7.26358 2.33824 7.64217 2.17017C7.80267 2.09892 7.96526 2.03147 8.1298 1.96795C8.51623 1.81878 8.95041 2.01112 9.09958 2.39754ZM5.6477 4.24026C5.93337 4.54021 5.92178 5.01495 5.62183 5.30061C5.51216 5.40506 5.40505 5.51216 5.30061 5.62183C5.01495 5.92178 4.54021 5.93337 4.24026 5.6477C3.94031 5.36204 3.92873 4.88731 4.21439 4.58736C4.33566 4.46003 4.46002 4.33566 4.58736 4.21439C4.88731 3.92873 5.36204 3.94031 5.6477 4.24026ZM3.15997 7.261C3.53856 7.42907 3.70921 7.87222 3.54114 8.2508C3.47988 8.38879 3.42191 8.52855 3.36731 8.66999C3.21814 9.05641 2.78396 9.24874 2.39754 9.09958C2.01112 8.95041 1.81878 8.51623 1.96795 8.12981C2.03147 7.96526 2.09892 7.80267 2.17017 7.64217C2.33824 7.26358 2.78139 7.09293 3.15997 7.261Z" />
  </symbol>

  <symbol id="collection" viewBox="0 0 24 24">
    <path fill-rule="evenodd" d="M8.25 18C8.25 17.5858 8.58579 17.25 9 17.25H15C15.4142 17.25 15.75 17.5858 15.75 18C15.75 18.4142 15.4142 18.75 15 18.75H9C8.58579 18.75 8.25 18.4142 8.25 18Z" />
    <path fill-rule="evenodd" d="M8.69935 1.25001H15.3004C15.5203 1.24995 15.6888 1.2499 15.8362 1.26571C17.1903 1.41104 18.2268 2.52307 18.2897 3.87013C19.4805 4.22571 20.3289 5.3275 20.3443 6.59118C20.9453 6.77151 21.4637 7.05595 21.888 7.51432C22.54 8.21857 22.7421 9.08649 22.7498 10.1003C22.7572 11.075 22.5835 12.3067 22.3678 13.8363L21.9288 16.9499C21.7602 18.146 21.6232 19.1176 21.4101 19.879C21.1871 20.6756 20.8585 21.331 20.25 21.8349C19.6463 22.3347 18.9301 22.5502 18.0835 22.6518C17.265 22.75 16.2353 22.75 14.9532 22.75H9.04687C7.76478 22.75 6.73501 22.75 5.91647 22.6518C5.06993 22.5502 4.35372 22.3347 3.75003 21.8349C3.14152 21.331 2.81286 20.6756 2.58989 19.879C2.37676 19.1176 2.23979 18.146 2.07118 16.9499L1.63219 13.8363C1.41651 12.3067 1.24283 11.075 1.25023 10.1003C1.25792 9.08649 1.45997 8.21857 2.11196 7.51432C2.53621 7.05606 3.05445 6.77164 3.65528 6.5913C3.67058 5.3275 4.51917 4.22559 5.71005 3.87007C5.77295 2.52304 6.80943 1.41104 8.16359 1.26571C8.31094 1.2499 8.4795 1.24995 8.69935 1.25001ZM5.18902 6.32785C6.11481 6.24999 7.24973 6.25 8.61594 6.25001H15.384C16.75 6.25 17.8848 6.24999 18.8105 6.32781C18.6734 5.72018 18.1306 5.25001 17.4617 5.25001H6.53787C5.86896 5.25001 5.32618 5.72019 5.18902 6.32785ZM15.6761 2.75715C16.2263 2.8162 16.6611 3.22633 16.7677 3.75001H7.2321C7.33862 3.22633 7.77344 2.8162 8.32365 2.75715C8.37993 2.75111 8.46013 2.75001 8.74099 2.75001H15.2588C15.5396 2.75001 15.6198 2.75111 15.6761 2.75715ZM3.21267 8.53336C3.51557 8.20618 3.97106 7.98917 4.85612 7.87145C5.75726 7.75159 6.96357 7.75001 8.67239 7.75001H15.3276C17.0364 7.75001 18.2427 7.75159 19.1439 7.87145C20.0289 7.98917 20.4844 8.20618 20.7873 8.53336C21.0832 8.85293 21.2436 9.28782 21.2498 10.1117C21.2563 10.9618 21.1002 12.0828 20.8738 13.6883L20.4509 16.6883C20.2731 17.9491 20.1486 18.821 19.9656 19.4747C19.7894 20.1042 19.582 20.4405 19.2934 20.6795C18.9999 20.9225 18.6058 21.0784 17.9048 21.1625C17.1861 21.2488 16.2465 21.25 14.9046 21.25H9.09536C7.75347 21.25 6.81393 21.2488 6.09519 21.1625C5.39417 21.0784 5.00014 20.9225 4.70664 20.6795C4.41795 20.4405 4.21058 20.1042 4.03437 19.4747C3.8514 18.821 3.7269 17.9491 3.54913 16.6883L3.12616 13.6883C2.89981 12.0828 2.74373 10.9618 2.75018 10.1117C2.75644 9.28782 2.91681 8.85293 3.21267 8.53336Z" />
  </symbol>

  <symbol id="environment" viewBox="0 0 24 24">
    <path fill-rule="evenodd" d="M5.57801 5.34262C3.83444 7.02492 2.75 9.38581 2.75 12C2.75 17.1086 6.89137 21.25 12 21.25C12.1275 21.25 12.2544 21.2474 12.3807 21.2423C12.1752 20.3307 12.1474 19.1051 12.774 17.9243C13.4261 16.6955 14.7762 16.1622 15.7689 15.9182C16.289 15.7904 16.7708 15.7273 17.1211 15.6959C17.2972 15.6801 17.4423 15.6721 17.5452 15.668C17.5966 15.666 17.6377 15.6649 17.667 15.6644L17.7019 15.6639L17.7104 15.6638C19.3829 15.6464 20.1364 15.1025 20.5363 14.5836C20.8779 14.1404 21.0069 13.6971 21.1377 13.2475C21.1543 13.1903 21.171 13.133 21.1881 13.0756C21.229 12.7227 21.25 12.3638 21.25 12C21.25 9.47592 20.239 7.18797 18.5999 5.51898C18.5912 5.55304 18.5823 5.5866 18.5732 5.6196C18.4104 6.21256 18.1475 6.82114 17.8618 7.25475C17.6059 7.64313 17.1095 8.03492 16.6975 8.33094C16.4263 8.52578 16.144 8.6913 15.8879 8.83888C15.857 8.85672 15.8265 8.87428 15.7963 8.8916C15.5683 9.02278 15.3631 9.14077 15.1656 9.27123C14.7338 9.55655 14.3997 9.86363 14.1748 10.3273C14.0961 10.4897 14.0936 10.6481 14.1402 10.8177C14.2148 11.0892 14.2656 11.3946 14.2664 11.706C14.2681 12.355 13.9375 12.8817 13.5126 13.2241C13.0928 13.5625 12.5441 13.756 11.9918 13.75C9.53653 13.7231 8.02692 11.7306 7.82782 9.51448C7.74861 8.63293 7.36212 7.74121 6.87411 6.96185C6.42593 6.2461 5.92094 5.67095 5.57801 5.34262ZM6.74505 4.38662C7.1601 4.80462 7.68084 5.42381 8.14544 6.16579C8.70296 7.05616 9.21374 8.17759 9.3218 9.38025C9.47276 11.0605 10.5349 12.234 12.0082 12.25C12.2108 12.2523 12.4212 12.1772 12.5714 12.0562C12.7165 11.9393 12.7667 11.8158 12.7664 11.7099C12.766 11.5544 12.7398 11.3825 12.6937 11.2148C12.5726 10.7736 12.5553 10.2292 12.8252 9.67271C13.2102 8.87891 13.7808 8.38838 14.3388 8.01971C14.5779 7.86171 14.826 7.71918 15.0498 7.59055C15.08 7.57322 15.1097 7.55613 15.1389 7.5393C15.3941 7.39218 15.6182 7.25939 15.8222 7.11277C16.2533 6.80305 16.526 6.55581 16.6092 6.42947C16.7917 6.15255 16.9969 5.69533 17.1267 5.2225C17.2296 4.84787 17.2581 4.56036 17.2485 4.38216C15.7573 3.35281 13.949 2.75 12 2.75C10.0481 2.75 8.23748 3.35455 6.74505 4.38662ZM22.6792 13.2403C22.726 12.8333 22.75 12.4195 22.75 12C22.75 6.06294 17.9371 1.25 12 1.25C6.06294 1.25 1.25 6.06294 1.25 12C1.25 17.9371 6.06294 22.75 12 22.75C17.4604 22.75 21.9699 18.6789 22.6588 13.4064C22.6771 13.3429 22.6929 13.29 22.7071 13.2501L22.6792 13.2403ZM19.9047 16.8066C19.3091 17.0249 18.5912 17.1547 17.7261 17.1638L17.7182 17.1638V17.1638L17.7156 17.1638L17.695 17.1641C17.6755 17.1645 17.6449 17.1652 17.6044 17.1668C17.5233 17.1701 17.4034 17.1766 17.2552 17.1899C16.9571 17.2166 16.5537 17.27 16.1269 17.3749C15.2257 17.5964 14.435 17.9942 14.099 18.6274C13.6435 19.4857 13.7085 20.4196 13.8784 21.0592C16.4274 20.5334 18.5931 18.9589 19.9047 16.8066Z" />
  </symbol>

  <symbol id="console" viewBox="0 0 24 24">
    <path d="M17.75 15C17.75 15.4142 17.4142 15.75 17 15.75H12C11.5858 15.75 11.25 15.4142 11.25 15C11.25 14.5858 11.5858 14.25 12 14.25H17C17.4142 14.25 17.75 14.5858 17.75 15Z" />
    <path d="M7.48014 9.42383C7.16193 9.15866 6.68901 9.20165 6.42383 9.51986C6.15866 9.83807 6.20165 10.311 6.51986 10.5762L6.75427 10.7715C7.41283 11.3203 7.84346 11.6815 8.11966 11.9874C8.38194 12.2778 8.40693 12.414 8.40693 12.5C8.40693 12.586 8.38194 12.7222 8.11966 13.0126C7.84346 13.3185 7.41283 13.6797 6.75427 14.2285L6.51986 14.4238C6.20165 14.689 6.15866 15.1619 6.42383 15.4801C6.68901 15.7983 7.16193 15.8413 7.48014 15.5762L7.75656 15.3458C8.36151 14.8417 8.87651 14.4126 9.23293 14.0179C9.61149 13.5987 9.90693 13.1166 9.90693 12.5C9.90693 11.8834 9.61149 11.4013 9.23293 10.9821C8.87651 10.5874 8.36151 10.1583 7.75656 9.65418L7.48014 9.42383Z" />
    <path fill-rule="evenodd" clip-rule="evenodd" d="M11.9426 1.25H12.0574C14.3658 1.24999 16.1748 1.24998 17.5863 1.43975C19.031 1.63399 20.1711 2.03933 21.0659 2.93414C21.9607 3.82895 22.366 4.96897 22.5603 6.41371C22.75 7.82519 22.75 9.63423 22.75 11.9426V12.0574C22.75 14.3658 22.75 16.1748 22.5603 17.5863C22.366 19.031 21.9607 20.1711 21.0659 21.0659C20.1711 21.9607 19.031 22.366 17.5863 22.5603C16.1748 22.75 14.3658 22.75 12.0574 22.75H11.9426C9.63423 22.75 7.82519 22.75 6.41371 22.5603C4.96897 22.366 3.82895 21.9607 2.93414 21.0659C2.03933 20.1711 1.63399 19.031 1.43975 17.5863C1.24998 16.1748 1.24999 14.3658 1.25 12.0574V11.9426C1.24999 9.63423 1.24998 7.82519 1.43975 6.41371C1.63399 4.96897 2.03933 3.82895 2.93414 2.93414C3.82895 2.03933 4.96897 1.63399 6.41371 1.43975C7.82519 1.24998 9.63423 1.24999 11.9426 1.25ZM6.61358 2.92637C5.33517 3.09825 4.56445 3.42514 3.9948 3.9948C3.42514 4.56445 3.09825 5.33517 2.92637 6.61358C2.75159 7.91356 2.75 9.62178 2.75 12C2.75 14.3782 2.75159 16.0864 2.92637 17.3864C3.09825 18.6648 3.42514 19.4355 3.9948 20.0052C4.56445 20.5749 5.33517 20.9018 6.61358 21.0736C7.91356 21.2484 9.62178 21.25 12 21.25C14.3782 21.25 16.0864 21.2484 17.3864 21.0736C18.6648 20.9018 19.4355 20.5749 20.0052 20.0052C20.5749 19.4355 20.9018 18.6648 21.0736 17.3864C21.2484 16.0864 21.25 14.3782 21.25 12C21.25 9.62178 21.2484 7.91356 21.0736 6.61358C20.9018 5.33517 20.5749 4.56445 20.0052 3.9948C19.4355 3.42514 18.6648 3.09825 17.3864 2.92637C16.0864 2.75159 14.3782 2.75 12 2.75C9.62178 2.75 7.91356 2.75159 6.61358 2.92637Z" />
  </symbol>

  <symbol id="more" viewBox="0 0 24 24">
    <path d="m 12.75,6.6 c 0,-0.41421 -0.3358,-0.75 -0.75,-0.75 -0.4142,0 -0.75,0.33579 -0.75,0.75 v 4.65 H 6.6 c -0.41421,0 -0.75,0.3358 -0.75,0.75 0,0.4142 0.33579,0.75 0.75,0.75 h 4.65 v 4.65 c 0,0.4142 0.3358,0.75 0.75,0.75 0.4142,0 0.75,-0.3358 0.75,-0.75 v -4.65 h 4.65 c 0.4142,0 0.75,-0.3358 0.75,-0.75 0,-0.4142 -0.3358,-0.75 -0.75,-0.75 h -4.65 z" />
    <path d="M12.0574 1.25H11.9426C9.63424 1.24999 7.82519 1.24998 6.41371 1.43975C4.96897 1.63399 3.82895 2.03933 2.93414 2.93414C2.03933 3.82895 1.63399 4.96897 1.43975 6.41371C1.24998 7.82519 1.24999 9.63422 1.25 11.9426V12.0574C1.24999 14.3658 1.24998 16.1748 1.43975 17.5863C1.63399 19.031 2.03933 20.1711 2.93414 21.0659C3.82895 21.9607 4.96897 22.366 6.41371 22.5603C7.82519 22.75 9.63423 22.75 11.9426 22.75H12.0574C14.3658 22.75 16.1748 22.75 17.5863 22.5603C19.031 22.366 20.1711 21.9607 21.0659 21.0659C21.9607 20.1711 22.366 19.031 22.5603 17.5863C22.75 16.1748 22.75 14.3658 22.75 12.0574V11.9426C22.75 9.63423 22.75 7.82519 22.5603 6.41371C22.366 4.96897 21.9607 3.82895 21.0659 2.93414C20.1711 2.03933 19.031 1.63399 17.5863 1.43975C16.1748 1.24998 14.3658 1.24999 12.0574 1.25ZM3.9948 3.9948C4.56445 3.42514 5.33517 3.09825 6.61358 2.92637C7.91356 2.75159 9.62177 2.75 12 2.75C14.3782 2.75 16.0864 2.75159 17.3864 2.92637C18.6648 3.09825 19.4355 3.42514 20.0052 3.9948C20.5749 4.56445 20.9018 5.33517 21.0736 6.61358C21.2484 7.91356 21.25 9.62177 21.25 12C21.25 14.3782 21.2484 16.0864 21.0736 17.3864C20.9018 18.6648 20.5749 19.4355 20.0052 20.0052C19.4355 20.5749 18.6648 20.9018 17.3864 21.0736C16.0864 21.2484 14.3782 21.25 12 21.25C9.62177 21.25 7.91356 21.2484 6.61358 21.0736C5.33517 20.9018 4.56445 20.5749 3.9948 20.0052C3.42514 19.4355 3.09825 18.6648 2.92637 17.3864C2.75159 16.0864 2.75 14.3782 2.75 12C2.75 9.62177 2.75159 7.91356 2.92637 6.61358C3.09825 5.33517 3.42514 4.56445 3.9948 3.9948Z" />
  </symbol>

  <symbol id="arrow" viewBox="0 0 24 24">
    <path fill-rule="evenodd" clip-rule="evenodd" d="m 4.4305607,8.5119142 c 0.26957,-0.3145 0.74304,-0.3509 1.05754,-0.0813 l 6.5118903,5.5815898 6.5119,-5.5815898 c 0.3145,-0.2696 0.788,-0.2332 1.0576,0.0813 0.2695,0.3145 0.2331,0.788 -0.0814,1.0575 l -7,6.0000398 c -0.2809,0.24075 -0.6953,0.24075 -0.9762,0 L 4.5119107,9.5694142 c -0.31449,-0.2695 -0.35092,-0.743 -0.08135,-1.0575 z" />
  </symbol>

  <symbol id="edit" viewBox="0 0 24 24">
    <path d="m 18.068359,1.2539062 c -1.199911,0 -2.401343,0.456025 -3.3125,1.3671876 L 13.830078,3.5488281 5.3085937,12.070313 c -0.5771287,0.577168 -0.8894078,0.884784 -1.1757812,1.251953 -0.3262433,0.41832 -0.6057521,0.870745 -0.8339844,1.349609 -0.200302,0.42031 -0.3375883,0.837044 -0.5957031,1.611328 l -1.09375,3.28125 -0.265625,0.802734 c -0.2163797,0.649037 -0.048136,1.367761 0.4355469,1.851563 h 0.00195 v 0.002 c 0.4837701,0.483719 1.2024909,0.65187 1.8515625,0.435547 l 0.8027344,-0.265625 3.28125,-1.09375 c 0.7743098,-0.25809 1.1909944,-0.39539 1.6113281,-0.595703 0.4788739,-0.228232 0.931273,-0.507678 1.349609,-0.833985 0.367166,-0.286394 0.6748,-0.598727 1.251954,-1.175781 l 8.521484,-8.521484 0.927734,-0.9257814 c 1.822308,-1.8223198 1.822311,-4.8007361 0,-6.6230468 C 20.46775,1.7099312 19.26827,1.2539063 18.068359,1.2539062 Z m 0,1.4921876 c 0.812887,0 1.625459,0.3110009 2.25,0.9355468 1.249087,1.2490862 1.249089,3.2528561 0,4.5019532 l -0.642578,0.640625 C 19.302595,8.7801037 18.075919,8.5876297 16.744141,7.2558594 15.412369,5.924088 15.219885,4.6974059 15.175781,4.3242187 l 0.640625,-0.6425781 c 0.624542,-0.6245459 1.439066,-0.9355468 2.251953,-0.9355468 z m -4.113281,2.7988281 c 0.280535,0.8020006 0.781313,1.8242812 1.728516,2.7714844 0.947199,0.9471939 1.969494,1.4479673 2.771484,1.7285157 l -7.585937,7.585937 c -0.577246,0.577146 -0.844048,0.842729 -1.1132816,1.052735 -0.332423,0.259293 -0.6936735,0.480741 -1.0742188,0.662109 C 8.373415,19.49259 8.0165561,19.614937 7.2421875,19.873047 L 4.4003906,20.820312 3.1796875,19.599609 4.1269531,16.757812 c 0.2581247,-0.774313 0.3804262,-1.131164 0.5273438,-1.439453 0.1813673,-0.380535 0.4028132,-0.74174 0.6621093,-1.074218 0.2099861,-0.269231 0.4755444,-0.536052 1.0527344,-1.113282 z" />
  </symbol>

  <symbol id="spin" viewBox="0 0 16 16">
    <path d="M 7.3867187,1.3613281 C 3.8070638,1.6924377 1.1247894,4.8220146 1.3457031,8.4101563 1.5666169,11.998298 4.6118413,14.774572 8.2050781,14.664063 11.798315,14.553553 14.666016,11.594936 14.666016,8 A 0.66666669,0.66666669 0 0 0 14,7.3339844 0.66666669,0.66666669 0 0 0 13.333984,8 c 0,2.888849 -2.282438,5.241274 -5.1699215,5.330078 C 5.2765789,13.418882 2.853305,11.211514 2.6757813,8.328125 2.4982575,5.4447359 4.6312431,2.955529 7.5078125,2.6894531 A 0.66666669,0.66666669 0 0 0 8.1113281,1.9648437 0.66666669,0.66666669 0 0 0 7.3867187,1.3613281 Z" />
  </symbol>

  <symbol id="send" viewBox="0 0 24 24">
    <path d="M20.33 3.66996C20.1408 3.48213 19.9035 3.35008 19.6442 3.28833C19.3849 3.22659 19.1135 3.23753 18.86 3.31996L4.23 8.19996C3.95867 8.28593 3.71891 8.45039 3.54099 8.67255C3.36307 8.89471 3.25498 9.16462 3.23037 9.44818C3.20576 9.73174 3.26573 10.0162 3.40271 10.2657C3.5397 10.5152 3.74754 10.7185 4 10.85L10.07 13.85L13.07 19.94C13.1906 20.1783 13.3751 20.3785 13.6029 20.518C13.8307 20.6575 14.0929 20.7309 14.36 20.73H14.46C14.7461 20.7089 15.0192 20.6023 15.2439 20.4239C15.4686 20.2456 15.6345 20.0038 15.72 19.73L20.67 5.13996C20.7584 4.88789 20.7734 4.6159 20.7132 4.35565C20.653 4.09541 20.5201 3.85762 20.33 3.66996ZM4.85 9.57996L17.62 5.31996L10.53 12.41L4.85 9.57996ZM14.43 19.15L11.59 13.47L18.68 6.37996L14.43 19.15Z" />
  </symbol>

  <symbol id="save" viewBox="0 0 24 24">
    <path d="M 12,1.25 C 9.6429774,1.25 7.860594,1.2449714 6.4140625,1.4394531 4.967531,1.6339349 3.8080817,2.0590998 2.9335938,2.9335938 2.0590998,3.8080817 1.6339349,4.967531 1.4394531,6.4140625 1.2449714,7.860594 1.25,9.6429774 1.25,12 h 1.5 C 2.75,9.6429774 2.7541459,7.8898845 2.9257813,6.6132812 3.0974166,5.336678 3.404166,4.5841112 3.9941406,3.9941406 4.5841112,3.404166 5.336678,3.0974166 6.6132812,2.9257813 7.8898845,2.7541459 9.6429774,2.75 12,2.75 c 2.356998,0 4.110109,0.00415 5.386719,0.1757813 1.27661,0.1716355 2.029208,0.4783983 2.61914,1.0683593 0.589989,0.589972 0.896721,1.3425391 1.06836,2.6191406 C 21.245857,7.8898828 21.25,9.6429774 21.25,12 h 1.5 c 0,-2.3570226 0.005,-4.1394043 -0.189453,-5.5859375 C 22.366061,4.9675293 21.940917,3.8080803 21.066406,2.9335938 20.191941,2.0590862 19.032475,1.6339348 17.585937,1.4394531 16.1394,1.2449715 14.356998,1.25 12,1.25 Z" />
    <path d="M 10,5.25 C 7.1997428,5.25 5.6941384,5.2117823 4.3886719,5.8769531 3.3068213,6.4281759 2.4281759,7.3068213 1.8769531,8.3886719 1.2117858,9.6941317 1.25,11.199703 1.25,14 c 0,2.800297 -0.038204,4.305839 0.6269531,5.611328 0.551224,1.081842 1.4298427,1.960552 2.5117188,2.511719 C 5.6941433,22.788257 7.1997428,22.75 10,22.75 h 4 c 2.800297,0 4.305834,0.03824 5.611328,-0.626953 1.081867,-0.551168 1.960551,-1.429852 2.511719,-2.511719 C 22.788244,18.305834 22.75,16.800297 22.75,14 22.75,11.199703 22.788253,9.6941366 22.123047,8.3886719 21.57188,7.3067958 20.69317,6.4281771 19.611328,5.8769531 18.305839,5.2117956 16.800297,5.25 14,5.25 Z m 0,1.5 h 4 c 2.800297,0 4.095979,0.038109 4.929687,0.4628906 0.799757,0.407495 1.44999,1.0576799 1.857422,1.8574219 C 21.211902,9.9039656 21.25,11.199703 21.25,14 c 0,2.800297 -0.03809,4.095984 -0.462891,4.929687 -0.407431,0.799732 -1.05769,1.449991 -1.857422,1.857422 C 18.095984,21.211912 16.800297,21.25 14,21.25 h -4 c -2.8002572,0 -4.0960411,-0.0381 -4.9296875,-0.462891 C 4.2705705,20.379677 3.6203856,19.729444 3.2128906,18.929687 2.7881092,18.095979 2.75,16.800297 2.75,14 2.75,11.199703 2.7881191,9.9039706 3.2128906,9.0703125 3.6203869,8.270545 4.270545,7.6203869 5.0703125,7.2128906 5.9039638,6.7881225 7.1997428,6.75 10,6.75 Z" />
    <path d="M 12,10.25 A 0.75,0.75 0 0 0 11.25,11 v 4.1875 l -1.21875,-1.21875 a 0.75,0.75 0 0 0 -1.0625,0 0.75,0.75 0 0 0 0,1.0625 l 2.5,2.5 a 0.75,0.75 0 0 0 1.0625,0 l 2.5,-2.5 a 0.75,0.75 0 0 0 0,-1.0625 0.75,0.75 0 0 0 -1.0625,0 L 12.75,15.1875 V 11 A 0.75,0.75 0 0 0 12,10.25 Z" />
  </symbol>

  <symbol id="folder" viewBox="0 0 24 24">
    <path d="m 6.85929,1.25001 c 0.02975,0 0.0599,10e-6 0.09047,10e-6 l 0.03699,-10e-6 c 0.35143,-2e-5 0.57758,-3e-5 0.79867,0.02064 0.95128,0.08896 1.85363,0.46272 2.58918,1.07248 0.171,0.14172 0.3309,0.30164 0.5794,0.55016 l 0.5763,0.5764 c 0.8458,0.84571 1.1709,1.16141 1.5465,1.37036 0.218,0.12129 0.4492,0.21708 0.6892,0.28547 0.4133,0.11781 0.8664,0.1245 2.0624,0.1245 h 0.4246 c 1.273,-2e-5 2.2991,-4e-5 3.111,0.10204 0.8414,0.10578 1.5564,0.33152 2.1437,0.85979 0.0984,0.08847 0.192,0.18209 0.2805,0.28046 0.5283,0.58734 0.754,1.30228 0.8598,2.1437 0.102,0.81189 0.102,1.83809 0.102,3.11099 v 2.3094 c 0,1.8378 0,3.2934 -0.1531,4.4326 -0.1576,1.1725 -0.4898,2.1214 -1.2381,2.8698 -0.7484,0.7483 -1.6973,1.0805 -2.8698,1.2381 C 17.3498,22.75 15.8942,22.75 14.0564,22.75 H 9.94361 c -1.83777,0 -3.2934,0 -4.43262,-0.1531 C 4.33857,22.4393 3.38962,22.1071 2.64126,21.3588 1.8929,20.6104 1.56078,19.6615 1.40315,18.489 1.24999,17.3498 1.25,15.8942 1.25002,14.0564 V 6.94976 c 0,-0.03057 -10e-6,-0.06072 -10e-6,-0.09047 C 1.2499,6.06338 1.24982,5.55685 1.33237,5.11935 1.6949,3.19788 3.19788,1.6949 5.11935,1.33237 5.55685,1.24982 6.06338,1.2499 6.85929,1.25001 Z m 0.09047,1.50001 c -0.91664,0 -1.27103,0.00327 -1.5523,0.05634 C 4.08277,3.05441 3.05441,4.08277 2.80636,5.39746 2.75329,5.67873 2.75002,6.03312 2.75002,6.94976 V 14 c 0,1.9068 0.00159,3.2615 0.13976,4.2892 0.13526,1.0061 0.38893,1.5857 0.81214,2.0089 0.42321,0.4232 1.00286,0.6769 2.00895,0.8122 C 6.73853,21.2484 8.0932,21.25 10,21.25 h 4 c 1.9068,0 3.2615,-0.0016 4.2892,-0.1397 1.0061,-0.1353 1.5857,-0.389 2.0089,-0.8122 0.4232,-0.4232 0.6769,-1.0028 0.8122,-2.0089 C 21.2484,17.2615 21.25,15.9068 21.25,14 V 11.7979 C 21.25,10.4621 21.2486,9.5305 21.1597,8.82312 21.0731,8.13448 20.9141,7.76356 20.6729,7.49539 20.6198,7.43637 20.5637,7.3802 20.5046,7.32712 20.2365,7.08592 19.8656,6.92692 19.1769,6.84034 18.4695,6.75141 17.538,6.75002 16.2021,6.75002 h -0.3737 c -0.0372,0 -0.0739,0 -0.1102,10e-6 -1.048,2.2e-4 -1.7238,3.5e-4 -2.3634,-0.18197 C 13.0041,6.46811 12.6661,6.32811 12.3475,6.15083 11.7663,5.82747 11.2885,5.3495 10.5476,4.60833 10.522,4.58265 10.496,4.55666 10.4697,4.53035 L 9.91943,3.98009 C 9.63616,3.69682 9.52778,3.58951 9.41731,3.49793 8.91403,3.08073 8.29664,2.825 7.64576,2.76413 7.50289,2.75077 7.35038,2.75002 6.94976,2.75002 Z" />
  </symbol>

  <symbol id="folder-open" viewBox="0 0 24 24">
    <path d="m 7.87879,1.25001 c 0.02662,0 0.05363,10e-6 0.08103,10e-6 h 0.0331 c 0.27772,-3e-5 0.46325,-4e-5 0.64506,0.0159 0.78079,0.06845 1.52652,0.35632 2.13902,0.83229 0.1428,0.11096 0.276,0.23587 0.4712,0.41888 l 0.0246,0.02309 0.4402,0.41269 c 0.682,0.6394 0.9249,0.85838 1.2036,1.00374 0.1654,0.08629 0.3417,0.15483 0.5253,0.20392 0.3127,0.08356 0.6579,0.08949 1.6209,0.08949 h 0.3458 c 1.0131,-2e-5 1.8395,-4e-5 2.4956,0.07729 0.6809,0.08026 1.2824,0.25331 1.7842,0.67643 0.083,0.06999 0.1622,0.14422 0.2373,0.22243 0.4599,0.47946 0.6524,1.06301 0.7407,1.72133 0.0837,0.62379 0.0836,1.40617 0.0836,2.34919 v 2.03211 c 0.2139,0.2165 0.4007,0.4591 0.5564,0.7222 0.3988,0.6739 0.481,1.4327 0.4301,2.2991 -0.0495,0.8446 -0.2347,1.8984 -0.4662,3.2164 l -0.0152,0.0861 c -0.1659,0.9446 -0.3001,1.7088 -0.4706,2.3151 -0.1766,0.6279 -0.4105,1.1596 -0.8188,1.6048 -0.1936,0.211 -0.4106,0.3985 -0.6469,0.5586 -0.5015,0.3397 -1.0572,0.4851 -1.6934,0.5534 C 17.0148,22.75 16.261,22.75 15.3362,22.75 H 8.66387 c -0.92488,0 -1.67861,0 -2.28922,-0.0655 C 5.73841,22.6162 5.18271,22.4708 4.68122,22.1311 4.4449,21.971 4.22791,21.7835 4.03438,21.5725 3.62604,21.1273 3.39215,20.5956 3.21558,19.9677 3.04508,19.3613 2.91084,18.5972 2.74489,17.6525 L 2.72976,17.5664 C 2.49822,16.2485 2.31308,15.1947 2.2635,14.3501 2.21264,13.4837 2.29483,12.7249 2.69367,12.051 2.84938,11.7879 3.03619,11.5453 3.25002,11.3288 V 5.71233 c 0,-0.02896 -1e-5,-0.05749 -1e-5,-0.08561 C 3.24984,5.04761 3.24973,4.6462 3.32024,4.29584 3.63017,2.75585 4.90258,1.59182 6.4761,1.3135 6.83606,1.24982 7.25062,1.2499 7.87879,1.25001 Z M 4.75002,10.4912 C 4.99046,10.4287 5.2437,10.384 5.50912,10.3511 6.3253,10.25 7.36395,10.25 8.65443,10.25 h 6.69117 c 1.2905,0 2.3291,0 3.1453,0.1011 0.2654,0.0329 0.5187,0.0776 0.7591,0.1401 V 9.34845 C 19.25,8.34037 19.2484,7.65926 19.1797,7.14687 19.1141,6.65764 18.9988,6.42679 18.8432,6.26461 18.805,6.22478 18.7644,6.18667 18.7215,6.15049 18.5389,5.99652 18.2717,5.88101 17.7286,5.817 17.1707,5.75124 16.4331,5.75002 15.3617,5.75002 h -0.2989 c -0.0336,0 -0.0667,10e-6 -0.0993,2e-5 -0.8276,2.1e-4 -1.3822,3.5e-4 -1.9088,-0.14037 C 12.7659,5.5325 12.4867,5.4242 12.2229,5.28657 11.7396,5.03451 11.3423,4.66182 10.7589,4.11455 10.7353,4.09238 10.7113,4.06992 10.6871,4.04717 L 10.2469,3.63448 C 10.0181,3.42006 9.93773,3.34569 9.85655,3.2826 9.47793,2.98835 9.00792,2.8041 8.50698,2.76018 8.39863,2.75069 8.28224,2.75002 7.95982,2.75002 7.22173,2.75002 6.95025,2.75291 6.73736,2.79057 5.72196,2.97017 4.9693,3.70465 4.79076,4.59178 4.75373,4.77576 4.75002,5.01416 4.75002,5.71233 Z m 0.94357,1.3485 c -0.69757,0.0865 -1.05723,0.2448 -1.30516,0.4742 -0.15676,0.145 -0.29299,0.3137 -0.4039,0.5011 -0.17924,0.3029 -0.2668,0.7115 -0.2236,1.4472 0.04389,0.7477 0.21277,1.7158 0.45452,3.0919 0.17439,0.9927 0.29644,1.6823 0.44413,2.2075 0.14394,0.5119 0.29347,0.7934 0.4802,0.9969 0.11527,0.1257 0.24376,0.2366 0.3827,0.3307 0.22168,0.1502 0.50762,0.2497 1.01227,0.3039 0.52119,0.0559 1.19422,0.0569 2.17058,0.0569 h 6.58937 c 0.9764,0 1.6494,-0.001 2.1706,-0.0569 0.5046,-0.0542 0.7906,-0.1537 1.0123,-0.3039 0.1389,-0.0941 0.2674,-0.205 0.3827,-0.3307 0.1867,-0.2035 0.3362,-0.485 0.4802,-0.9969 0.1477,-0.5252 0.2697,-1.2148 0.4441,-2.2075 0.2417,-1.3761 0.4106,-2.3442 0.4545,-3.0919 C 20.2823,13.5265 20.1948,13.1179 20.0155,12.815 19.9046,12.6276 19.7684,12.4589 19.6116,12.3139 19.3637,12.0845 19.004,11.9262 18.3064,11.8397 17.5934,11.7514 16.648,11.75 15.2947,11.75 H 8.70533 c -1.35331,0 -2.29864,0.0014 -3.01174,0.0897 z" />
  </symbol>

  <symbol id="file" viewBox="0 0 24 24">
    <path d="M12.25 2.83422C11.7896 2.75598 11.162 2.75005 10.0298 2.75005C8.11311 2.75005 6.75075 2.75163 5.71785 2.88987C4.70596 3.0253 4.12453 3.27933 3.7019 3.70195C3.27869 4.12516 3.02502 4.70481 2.88976 5.7109C2.75159 6.73856 2.75 8.09323 2.75 10.0001V14.0001C2.75 15.9069 2.75159 17.2615 2.88976 18.2892C3.02502 19.2953 3.27869 19.8749 3.7019 20.2981C4.12511 20.7214 4.70476 20.975 5.71085 21.1103C6.73851 21.2485 8.09318 21.2501 10 21.2501H14C15.9068 21.2501 17.2615 21.2485 18.2892 21.1103C19.2952 20.975 19.8749 20.7214 20.2981 20.2981C20.7213 19.8749 20.975 19.2953 21.1102 18.2892C21.2484 17.2615 21.25 15.9069 21.25 14.0001V13.5629C21.25 12.0269 21.2392 11.2988 21.0762 10.7501H17.9463C16.8135 10.7501 15.8877 10.7501 15.1569 10.6518C14.3929 10.5491 13.7306 10.3268 13.2019 9.79815C12.6732 9.26945 12.4509 8.60712 12.3482 7.84317C12.25 7.1123 12.25 6.18657 12.25 5.05374V2.83422ZM13.75 3.6095V5.00005C13.75 6.19976 13.7516 7.0241 13.8348 7.64329C13.9152 8.24091 14.059 8.53395 14.2626 8.73749C14.4661 8.94103 14.7591 9.08486 15.3568 9.16521C15.976 9.24846 16.8003 9.25005 18 9.25005H20.0195C19.723 8.9625 19.3432 8.61797 18.85 8.17407L14.8912 4.61117C14.4058 4.17433 14.0446 3.85187 13.75 3.6095ZM10.1755 1.25002C11.5601 1.24965 12.4546 1.24942 13.2779 1.56535C14.1012 1.88129 14.7632 2.47735 15.7873 3.39955C15.8226 3.43139 15.8584 3.46361 15.8947 3.49623L19.8534 7.05912C19.8956 7.09705 19.9372 7.1345 19.9783 7.17149C21.162 8.23614 21.9274 8.92458 22.3391 9.84902C22.7508 10.7734 22.7505 11.8029 22.75 13.3949C22.75 13.4502 22.75 13.5062 22.75 13.5629V14.0565C22.75 15.8942 22.75 17.3499 22.5969 18.4891C22.4392 19.6615 22.1071 20.6104 21.3588 21.3588C20.6104 22.1072 19.6614 22.4393 18.489 22.5969C17.3498 22.7501 15.8942 22.7501 14.0564 22.7501H9.94359C8.10583 22.7501 6.65019 22.7501 5.51098 22.5969C4.33856 22.4393 3.38961 22.1072 2.64124 21.3588C1.89288 20.6104 1.56076 19.6615 1.40314 18.4891C1.24997 17.3499 1.24998 15.8942 1.25 14.0565V9.94363C1.24998 8.10587 1.24997 6.65024 1.40314 5.51103C1.56076 4.33861 1.89288 3.38966 2.64124 2.64129C3.39019 1.89235 4.34232 1.56059 5.51887 1.40313C6.66283 1.25002 8.1257 1.25003 9.97352 1.25005L10.0298 1.25005C10.0789 1.25005 10.1275 1.25004 10.1755 1.25002Z" />
  </symbol>

  <symbol id="copy" viewBox="0 0 24 24">
    <path fill-rule="evenodd" clip-rule="evenodd" d="M15 1.25H10.9436C9.10583 1.24998 7.65019 1.24997 6.51098 1.40314C5.33856 1.56076 4.38961 1.89288 3.64124 2.64124C2.89288 3.38961 2.56076 4.33856 2.40314 5.51098C2.24997 6.65019 2.24998 8.10582 2.25 9.94357V16C2.25 17.8722 3.62205 19.424 5.41551 19.7047C5.55348 20.4687 5.81753 21.1208 6.34835 21.6517C6.95027 22.2536 7.70814 22.5125 8.60825 22.6335C9.47522 22.75 10.5775 22.75 11.9451 22.75H15.0549C16.4225 22.75 17.5248 22.75 18.3918 22.6335C19.2919 22.5125 20.0497 22.2536 20.6517 21.6517C21.2536 21.0497 21.5125 20.2919 21.6335 19.3918C21.75 18.5248 21.75 17.4225 21.75 16.0549V10.9451C21.75 9.57754 21.75 8.47522 21.6335 7.60825C21.5125 6.70814 21.2536 5.95027 20.6517 5.34835C20.1208 4.81753 19.4687 4.55348 18.7047 4.41551C18.424 2.62205 16.8722 1.25 15 1.25ZM17.1293 4.27117C16.8265 3.38623 15.9876 2.75 15 2.75H11C9.09318 2.75 7.73851 2.75159 6.71085 2.88976C5.70476 3.02502 5.12511 3.27869 4.7019 3.7019C4.27869 4.12511 4.02502 4.70476 3.88976 5.71085C3.75159 6.73851 3.75 8.09318 3.75 10V16C3.75 16.9876 4.38624 17.8265 5.27117 18.1293C5.24998 17.5194 5.24999 16.8297 5.25 16.0549V10.9451C5.24998 9.57754 5.24996 8.47522 5.36652 7.60825C5.48754 6.70814 5.74643 5.95027 6.34835 5.34835C6.95027 4.74643 7.70814 4.48754 8.60825 4.36652C9.47522 4.24996 10.5775 4.24998 11.9451 4.25H15.0549C15.8297 4.24999 16.5194 4.24998 17.1293 4.27117ZM7.40901 6.40901C7.68577 6.13225 8.07435 5.9518 8.80812 5.85315C9.56347 5.75159 10.5646 5.75 12 5.75H15C16.4354 5.75 17.4365 5.75159 18.1919 5.85315C18.9257 5.9518 19.3142 6.13225 19.591 6.40901C19.8678 6.68577 20.0482 7.07435 20.1469 7.80812C20.2484 8.56347 20.25 9.56458 20.25 11V16C20.25 17.4354 20.2484 18.4365 20.1469 19.1919C20.0482 19.9257 19.8678 20.3142 19.591 20.591C19.3142 20.8678 18.9257 21.0482 18.1919 21.1469C17.4365 21.2484 16.4354 21.25 15 21.25H12C10.5646 21.25 9.56347 21.2484 8.80812 21.1469C8.07435 21.0482 7.68577 20.8678 7.40901 20.591C7.13225 20.3142 6.9518 19.9257 6.85315 19.1919C6.75159 18.4365 6.75 17.4354 6.75 16V11C6.75 9.56458 6.75159 8.56347 6.85315 7.80812C6.9518 7.07435 7.13225 6.68577 7.40901 6.40901Z" />
  </symbol>

  <symbol id="filter" viewBox="0 0 24 24">
   <path d="M 5,2.25 C 4.2928957,2.25 3.7482064,2.2450282 3.2597656,2.3066406 2.7713248,2.3682531 2.2918721,2.5217586 1.9257812,2.8652344 1.5596923,3.2087084 1.3803476,3.6905964 1.3125,4.1640625 1.2446524,4.6375286 1.25,5.1510338 1.25,5.8144531 v 0.6894531 c 0,1.037839 -0.030268,1.7163818 0.3671875,2.3750001 0.3974571,0.6586213 1.008483,0.9640778 1.9570313,1.4980467 l 2.9121093,1.638672 c 0.6363674,0.35817 0.9224665,0.530258 1.0585938,0.648438 C 7.9148335,12.985186 8.1048734,13.300532 8.2050781,13.75 8.2415731,13.913642 8.25,14.205948 8.25,14.873047 v 2.669922 c 0,0.454799 -0.00264,0.811292 0.037109,1.154297 0.039754,0.343004 0.1398977,0.69736 0.3535156,0.998046 0.4273494,0.60134 1.0367388,0.794639 1.931641,1.144532 0.939299,0.367199 1.653746,0.651942 2.296875,0.804687 0.643129,0.152746 1.309585,0.161494 1.861328,-0.183594 0.551701,-0.345112 0.828053,-0.969252 0.927734,-1.601562 0.09968,-0.63231 0.0918,-1.361657 0.0918,-2.316406 v -2.669922 c 0,-0.667099 0.0084,-0.959471 0.04492,-1.123047 0.100147,-0.449412 0.290227,-0.764812 0.660156,-1.085937 0.136054,-0.118137 0.422161,-0.290276 1.058594,-0.648438 l 2.912109,-1.638672 C 21.374269,9.8429902 21.985342,9.5375495 22.382812,8.8789063 22.780268,8.220288 22.75,7.5417452 22.75,6.5039062 V 5.8144531 c 0,-0.6634193 0.0053,-1.1769322 -0.0625,-1.6503906 C 22.61966,3.6906041 22.440282,3.2087159 22.074219,2.8652344 21.708112,2.5217904 21.228677,2.3682527 20.740234,2.3066406 20.251792,2.2450285 19.707099,2.25 19,2.25 Z m 0,1.5 h 14 c 0.707099,0 1.224228,0.00348 1.552734,0.044922 0.328507,0.041438 0.420848,0.095307 0.494141,0.1640625 0.07324,0.068718 0.114265,0.1249579 0.15625,0.4179687 0.04199,0.2930109 0.04687,0.7740807 0.04687,1.4375 v 0.6894531 c 0,1.037839 -0.0306,1.3978685 -0.152344,1.5996094 -0.121729,0.201716 -0.459692,0.4308678 -1.408203,0.9648438 l -2.912109,1.6406246 c -0.636566,0.358238 -0.987096,0.544803 -1.306641,0.822266 -0.57907,0.502674 -0.974219,1.154591 -1.138672,1.892578 -0.0907,0.406424 -0.08203,0.78212 -0.08203,1.449219 v 2.669922 c 0,0.954749 -0.0069,1.65712 -0.07422,2.083984 -0.06729,0.426864 -0.12599,0.489814 -0.242187,0.5625 -0.116257,0.07271 -0.253627,0.106098 -0.716797,-0.0039 C 12.753627,20.075542 12.05844,19.808606 11.119141,19.441406 10.224204,19.0915 9.9397914,18.933832 9.8632813,18.826172 9.8249794,18.772259 9.8005695,18.723832 9.7773438,18.523437 9.754118,18.323043 9.75,17.997768 9.75,17.542969 v -2.669922 c 0,-0.667099 0.00859,-1.042861 -0.082031,-1.449219 C 9.5034537,12.685897 9.1083443,12.033926 8.5292969,11.53125 8.2097446,11.25383 7.8591276,11.067213 7.2226562,10.708984 L 4.3105469,9.0683594 C 3.3619971,8.5343895 3.0240861,8.3052534 2.9023438,8.1035156 2.7805995,7.9017747 2.75,7.5417452 2.75,6.5039062 V 5.8144531 c 0,-0.6634193 0.00489,-1.1444968 0.046875,-1.4375 C 2.8388623,4.08395 2.8798744,4.0277099 2.953125,3.9589844 3.0263737,3.8902606 3.1187648,3.8363593 3.4472656,3.7949219 3.7757665,3.7534844 4.2928957,3.75 5,3.75 Z" />
  </symbol>

  <symbol id="pre" viewBox="0 0 24 24">
    <path fill-rule="evenodd" clip-rule="evenodd" d="M12 8.25C9.92893 8.25 8.25 9.92893 8.25 12C8.25 14.0711 9.92893 15.75 12 15.75C14.0711 15.75 15.75 14.0711 15.75 12C15.75 9.92893 14.0711 8.25 12 8.25ZM9.75 12C9.75 10.7574 10.7574 9.75 12 9.75C13.2426 9.75 14.25 10.7574 14.25 12C14.25 13.2426 13.2426 14.25 12 14.25C10.7574 14.25 9.75 13.2426 9.75 12Z"/>
    <path fill-rule="evenodd" clip-rule="evenodd" d="M12 1.25C11.2954 1.25 10.6519 1.44359 9.94858 1.77037C9.26808 2.08656 8.48039 2.55304 7.49457 3.13685L6.74148 3.58283C5.75533 4.16682 4.96771 4.63324 4.36076 5.07944C3.73315 5.54083 3.25177 6.01311 2.90334 6.63212C2.55548 7.25014 2.39841 7.91095 2.32306 8.69506C2.24999 9.45539 2.24999 10.3865 2.25 11.556V12.444C2.24999 13.6135 2.24999 14.5446 2.32306 15.3049C2.39841 16.0891 2.55548 16.7499 2.90334 17.3679C3.25177 17.9869 3.73315 18.4592 4.36076 18.9206C4.96771 19.3668 5.75533 19.8332 6.74148 20.4172L7.4946 20.8632C8.48038 21.447 9.2681 21.9135 9.94858 22.2296C10.6519 22.5564 11.2954 22.75 12 22.75C12.7046 22.75 13.3481 22.5564 14.0514 22.2296C14.7319 21.9134 15.5196 21.447 16.5054 20.8632L17.2585 20.4172C18.2446 19.8332 19.0323 19.3668 19.6392 18.9206C20.2669 18.4592 20.7482 17.9869 21.0967 17.3679C21.4445 16.7499 21.6016 16.0891 21.6769 15.3049C21.75 14.5446 21.75 13.6135 21.75 12.4441V11.556C21.75 10.3866 21.75 9.45538 21.6769 8.69506C21.6016 7.91095 21.4445 7.25014 21.0967 6.63212C20.7482 6.01311 20.2669 5.54083 19.6392 5.07944C19.0323 4.63324 18.2447 4.16683 17.2585 3.58285L16.5054 3.13685C15.5196 2.55303 14.7319 2.08656 14.0514 1.77037C13.3481 1.44359 12.7046 1.25 12 1.25ZM8.22524 4.44744C9.25238 3.83917 9.97606 3.41161 10.5807 3.13069C11.1702 2.85676 11.5907 2.75 12 2.75C12.4093 2.75 12.8298 2.85676 13.4193 3.13069C14.0239 3.41161 14.7476 3.83917 15.7748 4.44744L16.4609 4.85379C17.4879 5.46197 18.2109 5.89115 18.7508 6.288C19.2767 6.67467 19.581 6.99746 19.7895 7.36788C19.9986 7.73929 20.1199 8.1739 20.1838 8.83855C20.2492 9.51884 20.25 10.378 20.25 11.5937V12.4063C20.25 13.622 20.2492 14.4812 20.1838 15.1614C20.1199 15.8261 19.9986 16.2607 19.7895 16.6321C19.581 17.0025 19.2767 17.3253 18.7508 17.712C18.2109 18.1089 17.4879 18.538 16.4609 19.1462L15.7748 19.5526C14.7476 20.1608 14.0239 20.5884 13.4193 20.8693C12.8298 21.1432 12.4093 21.25 12 21.25C11.5907 21.25 11.1702 21.1432 10.5807 20.8693C9.97606 20.5884 9.25238 20.1608 8.22524 19.5526L7.53909 19.1462C6.5121 18.538 5.78906 18.1089 5.24923 17.712C4.72326 17.3253 4.419 17.0025 4.2105 16.6321C4.00145 16.2607 3.88005 15.8261 3.81618 15.1614C3.7508 14.4812 3.75 13.622 3.75 12.4063V11.5937C3.75 10.378 3.7508 9.51884 3.81618 8.83855C3.88005 8.1739 4.00145 7.73929 4.2105 7.36788C4.419 6.99746 4.72326 6.67467 5.24923 6.288C5.78906 5.89115 6.5121 5.46197 7.53909 4.85379L8.22524 4.44744Z" />
  </symbol>

  <symbol id="expand" viewBox="0 0 24 24">
    <path d="M11.9426 1.25H12.0574C14.3658 1.24999 16.1748 1.24998 17.5863 1.43975C19.031 1.63399 20.1711 2.03933 21.0659 2.93414C21.9607 3.82895 22.366 4.96897 22.5603 6.41371C22.75 7.82519 22.75 9.63423 22.75 11.9426V12.0574C22.75 14.3658 22.75 16.1748 22.5603 17.5863C22.366 19.031 21.9607 20.1711 21.0659 21.0659C20.1711 21.9607 19.031 22.366 17.5863 22.5603C16.1748 22.75 14.3658 22.75 12.0574 22.75H11.9426C9.63423 22.75 7.82519 22.75 6.41371 22.5603C4.96897 22.366 3.82895 21.9607 2.93414 21.0659C2.03933 20.1711 1.63399 19.031 1.43975 17.5863C1.24998 16.1748 1.24999 14.3658 1.25 12.0574V11.9426C1.24999 9.63423 1.24998 7.82519 1.43975 6.41371C1.63399 4.96897 2.03933 3.82895 2.93414 2.93414C3.82895 2.03933 4.96897 1.63399 6.41371 1.43975C7.82519 1.24998 9.63423 1.24999 11.9426 1.25ZM6.61358 2.92637C5.33517 3.09825 4.56445 3.42514 3.9948 3.9948C3.42514 4.56445 3.09825 5.33517 2.92637 6.61358C2.75159 7.91356 2.75 9.62178 2.75 12C2.75 14.3782 2.75159 16.0864 2.92637 17.3864C3.09825 18.6648 3.42514 19.4355 3.9948 20.0052C4.56445 20.5749 5.33517 20.9018 6.61358 21.0736C7.91356 21.2484 9.62178 21.25 12 21.25C14.3782 21.25 16.0864 21.2484 17.3864 21.0736C18.6648 20.9018 19.4355 20.5749 20.0052 20.0052C20.5749 19.4355 20.9018 18.6648 21.0736 17.3864C21.2484 16.0864 21.25 14.3782 21.25 12C21.25 9.62178 21.2484 7.91356 21.0736 6.61358C20.9018 5.33517 20.5749 4.56445 20.0052 3.9948C19.4355 3.42514 18.6648 3.09825 17.3864 2.92637C16.0864 2.75159 14.3782 2.75 12 2.75C9.62178 2.75 7.91356 2.75159 6.61358 2.92637ZM10.7474 5.99364C10.7509 6.40784 10.4179 6.74646 10.0038 6.74997C9.14788 6.75723 8.55011 6.7855 8.10037 6.8736C7.67158 6.95759 7.43423 7.08568 7.25996 7.25996C7.08568 7.43423 6.95759 7.67158 6.8736 8.10037C6.7855 8.55011 6.75723 9.14788 6.74997 10.0038C6.74646 10.4179 6.40784 10.7509 5.99364 10.7474C5.57944 10.7439 5.24652 10.4052 5.25003 9.99103C5.25724 9.14035 5.28357 8.41444 5.40157 7.81203C5.52367 7.18869 5.75316 6.64543 6.1993 6.1993C6.64543 5.75316 7.18869 5.52367 7.81203 5.40157C8.41444 5.28357 9.14035 5.25724 9.99103 5.25003C10.4052 5.24652 10.7439 5.57944 10.7474 5.99364ZM13.2502 5.99364C13.2537 5.57944 13.5923 5.24652 14.0065 5.25003C14.8572 5.25724 15.5831 5.28357 16.1855 5.40157C16.8089 5.52367 17.3521 5.75316 17.7983 6.1993C18.2444 6.64543 18.4739 7.18869 18.596 7.81203C18.714 8.41444 18.7403 9.14035 18.7475 9.99103C18.751 10.4052 18.4181 10.7439 18.0039 10.7474C17.5897 10.7509 17.2511 10.4179 17.2476 10.0038C17.2403 9.14788 17.2121 8.55011 17.124 8.10037C17.04 7.67158 16.9119 7.43423 16.7376 7.25996C16.5633 7.08568 16.326 6.95759 15.8972 6.8736C15.4475 6.7855 14.8497 6.75723 13.9938 6.74997C13.5796 6.74646 13.2467 6.40784 13.2502 5.99364ZM5.99364 13.2502C6.40784 13.2467 6.74646 13.5796 6.74997 13.9938C6.75723 14.8497 6.7855 15.4475 6.8736 15.8972C6.95759 16.326 7.08568 16.5633 7.25996 16.7376C7.43423 16.9119 7.67158 17.04 8.10037 17.124C8.55011 17.2121 9.14788 17.2403 10.0038 17.2476C10.4179 17.2511 10.7509 17.5897 10.7474 18.0039C10.7439 18.4181 10.4052 18.751 9.99103 18.7475C9.14035 18.7403 8.41444 18.714 7.81203 18.596C7.18869 18.4739 6.64543 18.2444 6.1993 17.7983C5.75316 17.3521 5.52367 16.8089 5.40157 16.1855C5.28357 15.5831 5.25724 14.8572 5.25003 14.0065C5.24652 13.5923 5.57944 13.2537 5.99364 13.2502ZM18.0039 13.2502C18.4181 13.2537 18.751 13.5923 18.7475 14.0065C18.7403 14.8572 18.714 15.5831 18.596 16.1855C18.4739 16.8089 18.2444 17.3521 17.7983 17.7983C17.3521 18.2444 16.8089 18.4739 16.1855 18.596C15.5831 18.714 14.8572 18.7403 14.0065 18.7475C13.5923 18.751 13.2537 18.4181 13.2502 18.0039C13.2467 17.5897 13.5796 17.2511 13.9938 17.2476C14.8497 17.2403 15.4475 17.2121 15.8972 17.124C16.326 17.04 16.5633 16.9119 16.7376 16.7376C16.9119 16.5633 17.04 16.326 17.124 15.8972C17.2121 15.4475 17.2403 14.8497 17.2476 13.9938C17.2511 13.5796 17.5897 13.2467 18.0039 13.2502Z" />
  </symbol>

  <symbol id="collapse" viewBox="0 0 24 24">
    <path d="M11.9426 1.25H12.0574C14.3658 1.24999 16.1748 1.24998 17.5863 1.43975C19.031 1.63399 20.1711 2.03933 21.0659 2.93414C21.9607 3.82895 22.366 4.96897 22.5603 6.41371C22.75 7.82519 22.75 9.63423 22.75 11.9426V12.0574C22.75 14.3658 22.75 16.1748 22.5603 17.5863C22.366 19.031 21.9607 20.1711 21.0659 21.0659C20.1711 21.9607 19.031 22.366 17.5863 22.5603C16.1748 22.75 14.3658 22.75 12.0574 22.75H11.9426C9.63423 22.75 7.82519 22.75 6.41371 22.5603C4.96897 22.366 3.82895 21.9607 2.93414 21.0659C2.03933 20.1711 1.63399 19.031 1.43975 17.5863C1.24998 16.1748 1.24999 14.3658 1.25 12.0574V11.9426C1.24999 9.63423 1.24998 7.82519 1.43975 6.41371C1.63399 4.96897 2.03933 3.82895 2.93414 2.93414C3.82895 2.03933 4.96897 1.63399 6.41371 1.43975C7.82519 1.24998 9.63423 1.24999 11.9426 1.25ZM6.61358 2.92637C5.33517 3.09825 4.56445 3.42514 3.9948 3.9948C3.42514 4.56445 3.09825 5.33517 2.92637 6.61358C2.75159 7.91356 2.75 9.62178 2.75 12C2.75 14.3782 2.75159 16.0864 2.92637 17.3864C3.09825 18.6648 3.42514 19.4355 3.9948 20.0052C4.56445 20.5749 5.33517 20.9018 6.61358 21.0736C7.91356 21.2484 9.62178 21.25 12 21.25C14.3782 21.25 16.0864 21.2484 17.3864 21.0736C18.6648 20.9018 19.4355 20.5749 20.0052 20.0052C20.5749 19.4355 20.9018 18.6648 21.0736 17.3864C21.2484 16.0864 21.25 14.3782 21.25 12C21.25 9.62178 21.2484 7.91356 21.0736 6.61358C20.9018 5.33517 20.5749 4.56445 20.0052 3.9948C19.4355 3.42514 18.6648 3.09825 17.3864 2.92637C16.0864 2.75159 14.3782 2.75 12 2.75C9.62178 2.75 7.91356 2.75159 6.61358 2.92637ZM10.0039 5.25019C10.4181 5.25371 10.751 5.59233 10.7475 6.00653C10.7403 6.85721 10.714 7.58312 10.596 8.18553C10.4739 8.80887 10.2444 9.35213 9.79826 9.79826C9.35213 10.2444 8.80887 10.4739 8.18553 10.596C7.58312 10.714 6.85721 10.7403 6.00653 10.7475C5.59233 10.751 5.25371 10.4181 5.25019 10.0039C5.24668 9.58972 5.57961 9.2511 5.99381 9.24759C6.84968 9.24033 7.44745 9.21206 7.89719 9.12396C8.32598 9.03997 8.56333 8.91188 8.7376 8.7376C8.91188 8.56333 9.03997 8.32598 9.12396 7.89719C9.21206 7.44745 9.24033 6.84968 9.24759 5.99381C9.2511 5.57961 9.58972 5.24668 10.0039 5.25019ZM13.9936 5.25019C14.4078 5.24668 14.7465 5.57961 14.75 5.99381C14.7572 6.84968 14.7855 7.44745 14.8736 7.89719C14.9576 8.32598 15.0857 8.56333 15.26 8.7376C15.4342 8.91188 15.6716 9.03997 16.1004 9.12396C16.5501 9.21206 17.1479 9.24033 18.0038 9.24759C18.4179 9.2511 18.7509 9.58972 18.7474 10.0039C18.7439 10.4181 18.4052 10.751 17.991 10.7475C17.1403 10.7403 16.4144 10.714 15.812 10.596C15.1887 10.4739 14.6454 10.2444 14.1993 9.79826C13.7532 9.35213 13.5237 8.80887 13.4016 8.18553C13.2836 7.58312 13.2572 6.85721 13.25 6.00653C13.2465 5.59233 13.5794 5.25371 13.9936 5.25019ZM5.25019 13.9936C5.25371 13.5794 5.59233 13.2465 6.00653 13.25C6.85721 13.2572 7.58312 13.2836 8.18553 13.4016C8.80887 13.5237 9.35213 13.7532 9.79826 14.1993C10.2444 14.6454 10.4739 15.1887 10.596 15.812C10.714 16.4144 10.7403 17.1403 10.7475 17.991C10.751 18.4052 10.4181 18.7439 10.0039 18.7474C9.58972 18.7509 9.2511 18.4179 9.24759 18.0038C9.24033 17.1479 9.21206 16.5501 9.12396 16.1004C9.03997 15.6716 8.91188 15.4342 8.7376 15.26C8.56333 15.0857 8.32598 14.9576 7.89719 14.8736C7.44745 14.7855 6.84968 14.7572 5.99381 14.75C5.57961 14.7465 5.24668 14.4078 5.25019 13.9936ZM18.7474 13.9936C18.7509 14.4078 18.4179 14.7465 18.0038 14.75C17.1479 14.7572 16.5501 14.7855 16.1004 14.8736C15.6716 14.9576 15.4342 15.0857 15.26 15.26C15.0857 15.4342 14.9576 15.6716 14.8736 16.1004C14.7855 16.5501 14.7572 17.1479 14.75 18.0038C14.7465 18.4179 14.4078 18.7509 13.9936 18.7474C13.5794 18.7439 13.2465 18.4052 13.25 17.991C13.2572 17.1403 13.2836 16.4144 13.4016 15.812C13.5237 15.1887 13.7532 14.6454 14.1993 14.1993C14.6454 13.7532 15.1887 13.5237 15.812 13.4016C16.4144 13.2836 17.1403 13.2572 17.991 13.25C18.4052 13.2465 18.7439 13.5794 18.7474 13.9936Z" />
  </symbol>

  <symbol id="search" viewBox="0 0 24 24">
    <path d="M11.5 2.75C6.66751 2.75 2.75 6.66751 2.75 11.5C2.75 16.3325 6.66751 20.25 11.5 20.25C16.3325 20.25 20.25 16.3325 20.25 11.5C20.25 6.66751 16.3325 2.75 11.5 2.75ZM1.25 11.5C1.25 5.83908 5.83908 1.25 11.5 1.25C17.1609 1.25 21.75 5.83908 21.75 11.5C21.75 14.0605 20.8111 16.4017 19.2589 18.1982L22.5303 21.4697C22.8232 21.7626 22.8232 22.2374 22.5303 22.5303C22.2374 22.8232 21.7626 22.8232 21.4697 22.5303L18.1982 19.2589C16.4017 20.8111 14.0605 21.75 11.5 21.75C5.83908 21.75 1.25 17.1609 1.25 11.5Z" />
  </symbol>

  <symbol id="cookies" viewBox="0 0 24 24">
    <path d="m 11.539171,7.6639028 c 0,0.811852 -0.658168,1.47 -1.469999,1.47 -0.8118324,0 -1.4700004,-0.658148 -1.4700004,-1.47 0,-0.811852 0.658168,-1.47 1.4700004,-1.47 0.811831,0 1.469999,0.658148 1.469999,1.47 z" />
    <path d="m 9.0665476,14.282624 c 0,0.811852 -0.658168,1.47 -1.47,1.47 -0.811832,0 -1.4699996,-0.658148 -1.4699996,-1.47 0,-0.811852 0.6581676,-1.47 1.4699996,-1.47 0.811832,0 1.47,0.658148 1.47,1.47 z" />
    <path d="M 12,1.1992187 C 6.0444216,1.1992268 1.1992256,6.0444225 1.1992187,12 1.1992258,17.955577 6.0444218,22.800773 12,22.800781 h 0.002 c 5.687009,-0.0143 10.399668,-4.454755 10.751953,-10.130859 0.0098,-0.616459 -0.394041,-0.914547 -1.017574,-0.773437 -5.495884,1.243758 -6.297631,-3.5018239 -6.298828,-4.4804684 v -0.00391 -0.00195 c 0.0041,-0.5182337 0.0917,-1.0338408 0.261719,-1.5234375 0.152939,-0.41555 0.06592,-0.7388078 -0.365286,-0.9296879 C 14.75259,4.6487239 14.392113,4.050332 14.388672,3.3925781 14.392672,3.0928519 14.500567,2.9413131 14.619141,2.5371094 14.737715,2.1329057 14.683655,1.5727983 14.099609,1.40625 13.515563,1.2397017 12.705077,1.1992747 12,1.1992187 Z m 0,1.5351563 c 0.336591,2.67e-5 0.667754,0.063047 1.001953,0.099609 -0.410809,1.3272142 0.231772,2.4221647 1.16211,3.0507856 -0.129307,0.5000458 -0.198302,1.0017562 -0.201719,1.5195313 0.183266,4.0600941 3.133207,6.2928931 7.004547,6.1601571 C 20.198826,17.9339 16.537256,21.253266 12,21.265625 6.8736876,21.265618 2.7343811,17.126311 2.734375,12 2.7343809,6.8736889 6.8736876,2.7343819 12,2.734375 Z" />
    <path d="m 15.662257,16.09422 c 0,0.811852 -0.658168,1.47 -1.47,1.47 -0.811832,0 -1.47,-0.658148 -1.47,-1.47 0,-0.811852 0.658168,-1.47 1.47,-1.47 0.811832,0 1.47,0.658148 1.47,1.47 z" />
  </symbol>

  <symbol id="clipboard" viewBox="0 0 24 24">
    <path fill-rule="evenodd" clip-rule="evenodd" d="M7.2626 3.26045C7.38219 2.13044 8.33828 1.25 9.5 1.25H14.5C15.6617 1.25 16.6178 2.13044 16.7374 3.26045C17.5005 3.27599 18.1603 3.31546 18.7236 3.41895C19.4816 3.55818 20.1267 3.82342 20.6517 4.34835C21.2536 4.95027 21.5125 5.70814 21.6335 6.60825C21.75 7.47522 21.75 8.57754 21.75 9.94513V16.0549C21.75 17.4225 21.75 18.5248 21.6335 19.3918C21.5125 20.2919 21.2536 21.0497 20.6517 21.6517C20.0497 22.2536 19.2919 22.5125 18.3918 22.6335C17.5248 22.75 16.4225 22.75 15.0549 22.75H8.94513C7.57754 22.75 6.47522 22.75 5.60825 22.6335C4.70814 22.5125 3.95027 22.2536 3.34835 21.6517C2.74643 21.0497 2.48754 20.2919 2.36652 19.3918C2.24996 18.5248 2.24998 17.4225 2.25 16.0549V9.94513C2.24998 8.57754 2.24996 7.47522 2.36652 6.60825C2.48754 5.70814 2.74643 4.95027 3.34835 4.34835C3.87328 3.82342 4.51835 3.55818 5.27635 3.41895C5.83973 3.31546 6.49952 3.27599 7.2626 3.26045ZM7.26496 4.76087C6.54678 4.7762 5.99336 4.81234 5.54735 4.89426C4.98054 4.99838 4.65246 5.16556 4.40901 5.40901C4.13225 5.68577 3.9518 6.07435 3.85315 6.80812C3.75159 7.56347 3.75 8.56458 3.75 10V16C3.75 17.4354 3.75159 18.4365 3.85315 19.1919C3.9518 19.9257 4.13225 20.3142 4.40901 20.591C4.68577 20.8678 5.07435 21.0482 5.80812 21.1469C6.56347 21.2484 7.56458 21.25 9 21.25H15C16.4354 21.25 17.4365 21.2484 18.1919 21.1469C18.9257 21.0482 19.3142 20.8678 19.591 20.591C19.8678 20.3142 20.0482 19.9257 20.1469 19.1919C20.2484 18.4365 20.25 17.4354 20.25 16V10C20.25 8.56458 20.2484 7.56347 20.1469 6.80812C20.0482 6.07434 19.8678 5.68577 19.591 5.40901C19.3475 5.16556 19.0195 4.99838 18.4527 4.89426C18.0066 4.81234 17.4532 4.7762 16.735 4.76087C16.6058 5.88062 15.6544 6.75 14.5 6.75H9.5C8.34559 6.75 7.39424 5.88062 7.26496 4.76087ZM9.5 2.75C9.08579 2.75 8.75 3.08579 8.75 3.5V4.5C8.75 4.91421 9.08579 5.25 9.5 5.25H14.5C14.9142 5.25 15.25 4.91421 15.25 4.5V3.5C15.25 3.08579 14.9142 2.75 14.5 2.75H9.5ZM6.25 10.5C6.25 10.0858 6.58579 9.75 7 9.75H7.5C7.91421 9.75 8.25 10.0858 8.25 10.5C8.25 10.9142 7.91421 11.25 7.5 11.25H7C6.58579 11.25 6.25 10.9142 6.25 10.5ZM9.75 10.5C9.75 10.0858 10.0858 9.75 10.5 9.75H17C17.4142 9.75 17.75 10.0858 17.75 10.5C17.75 10.9142 17.4142 11.25 17 11.25H10.5C10.0858 11.25 9.75 10.9142 9.75 10.5ZM6.25 14C6.25 13.5858 6.58579 13.25 7 13.25H7.5C7.91421 13.25 8.25 13.5858 8.25 14C8.25 14.4142 7.91421 14.75 7.5 14.75H7C6.58579 14.75 6.25 14.4142 6.25 14ZM9.75 14C9.75 13.5858 10.0858 13.25 10.5 13.25H17C17.4142 13.25 17.75 13.5858 17.75 14C17.75 14.4142 17.4142 14.75 17 14.75H10.5C10.0858 14.75 9.75 14.4142 9.75 14ZM6.25 17.5C6.25 17.0858 6.58579 16.75 7 16.75H7.5C7.91421 16.75 8.25 17.0858 8.25 17.5C8.25 17.9142 7.91421 18.25 7.5 18.25H7C6.58579 18.25 6.25 17.9142 6.25 17.5ZM9.75 17.5C9.75 17.0858 10.0858 16.75 10.5 16.75H17C17.4142 16.75 17.75 17.0858 17.75 17.5C17.75 17.9142 17.4142 18.25 17 18.25H10.5C10.0858 18.25 9.75 17.9142 9.75 17.5Z"/>
  </symbol>

  <symbol id="check" viewBox="0 0 24 24">
    <path d="m 20.561834,4.7643227 c 0.445714,0.389157 0.491571,1.0659994 0.102433,1.5117563 L 9.4398415,19.133285 C 9.2362705,19.366285 8.9419845,19.5 8.6326995,19.5 c -0.309429,0 -0.6037,-0.133715 -0.807171,-0.366715 l -4.489798,-5.142853 c -0.3891568,-0.445858 -0.3432712,-1.122714 0.1025,-1.511857 0.4457569,-0.389142 1.1225993,-0.343286 1.5117563,0.102566 L 8.6326995,16.799424 19.049978,4.8668171 c 0.389142,-0.4457712 1.066,-0.4916568 1.511856,-0.1025 z" />
  </symbol>

  <symbol id="unlink" viewBox="0 0 24 24">
    <path d="M19.9898 3.99115C18.4371 2.46996 16.3085 2.41193 15.2251 3.4733L11.5251 7.09827C11.2292 7.38815 10.7543 7.38328 10.4645 7.0874C10.1746 6.79152 10.1795 6.31667 10.4753 6.02679L14.1754 2.40182C16.0113 0.603153 19.0891 1.00883 21.0395 2.91967C22.9927 4.8332 23.4179 7.87522 21.5681 9.68753L18.6609 12.5357C18.365 12.8256 17.8902 12.8208 17.6003 12.5249C17.3104 12.229 17.3153 11.7542 17.6112 11.4643L20.5184 8.61605C21.5878 7.56832 21.5398 5.50967 19.9898 3.99115Z" />
    <path d="M6.62424 3.58399C6.39448 3.23934 5.92882 3.14621 5.58418 3.37597C5.23953 3.60574 5.1464 4.07139 5.37617 4.41604L7.37617 7.41604C7.60593 7.76068 8.07158 7.85381 8.41623 7.62405C8.76088 7.39429 8.85401 6.92863 8.62424 6.58399L6.62424 3.58399Z" />
    <path d="M2.23737 7.2885C1.84442 7.15751 1.41968 7.36988 1.28869 7.76284C1.15771 8.1558 1.37008 8.58054 1.76303 8.71152L7.76303 10.7115C8.15599 10.8425 8.58073 10.6301 8.71172 10.2372C8.8427 9.84422 8.63033 9.41949 8.23737 9.2885L2.23737 7.2885Z" />
    <path d="M6.72775 12.506C7.00721 12.2003 6.98589 11.7259 6.68015 11.4464C6.37441 11.167 5.90001 11.1883 5.62056 11.494L4.3597 12.8735C2.63286 14.7628 3.01004 17.9268 4.86404 19.9552C6.72921 21.9958 9.73449 22.4595 11.5191 20.507L15.5538 16.0926C15.8333 15.7869 15.8119 15.3125 15.5062 15.033C15.2004 14.7536 14.7261 14.7749 14.4466 15.0806L10.4119 19.495C9.41099 20.59 7.44859 20.5596 5.97124 18.9432C4.48273 17.3147 4.4083 15.0437 5.4669 13.8855L6.72775 12.506Z" />
  </symbol>

  <symbol id="minimize" viewBox="0 0 24 24">
    <path d="m 19.44,18.689974 c 0,0.4142 -0.3358,0.75 -0.75,0.75 H 5.31 c -0.41421,0 -0.75,-0.3358 -0.75,-0.75 0,-0.4142 0.33579,-0.75 0.75,-0.75 h 13.38 c 0.4142,0 0.75,0.3358 0.75,0.75 z" />
  </symbol>

  <symbol id="maximized" viewBox="0 0 24 24">
    <path d="m 10.560528,19.439475 c 1.237432,0 2.180705,0.0059 2.980489,-0.101602 0.799783,-0.107528 1.504592,-0.360021 2.031269,-0.886699 0.519546,-0.519544 0.769692,-1.212879 0.87961,-1.999277 1.9e-5,-3e-6 3.9e-5,2e-6 5.8e-5,0 0.786374,-0.109922 1.479687,-0.360078 1.999219,-0.87961 0.526679,-0.526676 0.779171,-1.231486 0.886699,-2.031269 0.107528,-0.799784 0.101602,-1.743056 0.101602,-2.980489 0,-1.2374198 0.0059,-2.1806418 -0.101602,-2.9804288 -0.107528,-0.799787 -0.360007,-1.5046 -0.886699,-2.03127 -0.526676,-0.526687 -1.231484,-0.779168 -2.03127,-0.886699 -0.799785,-0.10753 -1.742997,-0.101602 -2.980429,-0.101602 -1.237419,0 -2.1807,-0.006 -2.980489,0.101602 -0.7997879,0.10753 -1.5046009,0.359998 -2.0312689,0.886699 -0.519555,0.519522 -0.769686,1.212841 -0.87961,1.999219 -2e-6,1.9e-5 3e-6,3.9e-5 0,5.8e-5 -0.786402,0.109919 -1.479742,0.360043 -1.999277,0.87961 -0.526701,0.526668 -0.779168,1.231481 -0.886699,2.0312688 -0.10753,0.799789 -0.101602,1.743069 -0.101602,2.980489 0,1.237433 -0.00596,2.180644 0.101602,2.980429 0.107531,0.799786 0.360012,1.504594 0.886699,2.03127 0.526669,0.526693 1.231483,0.779171 2.03127,0.886699 0.799787,0.107528 1.743009,0.101602 2.9804289,0.101602 z m 0,-1.5 c -1.2374199,0 -2.1513499,-0.0052 -2.7812109,-0.08988 -0.629861,-0.08468 -0.927805,-0.216818 -1.169941,-0.458965 -0.242168,-0.242164 -0.374282,-0.540086 -0.458965,-1.169941 -0.08468,-0.629856 -0.089883,-1.543778 -0.089883,-2.781211 0,-1.23742 0.00524,-2.149476 0.089883,-2.779336 0.08468,-0.629859 0.216811,-0.9297359 0.458965,-1.1718749 0.242138,-0.242153 0.540081,-0.374282 1.169941,-0.458965 0.629859,-0.08468 1.543791,-0.08982 2.7812109,-0.08982 1.237432,0 2.14948,0.0052 2.779336,0.08982 0.629855,0.08468 0.929714,0.216798 1.171875,0.458965 0.242149,0.242138 0.374283,0.5420139 0.458965,1.1718749 0.08468,0.629861 0.08982,1.541916 0.08982,2.779336 0,1.237433 -0.0051,2.151353 -0.08982,2.781211 -0.08468,0.629857 -0.216803,0.927781 -0.458965,1.169941 -0.242162,0.242162 -0.542019,0.374283 -1.171875,0.458965 -0.629857,0.08468 -1.541904,0.08988 -2.779336,0.08988 z m 5.934258,-1.856778 c 0.0012,-0.01267 0.002,-0.02604 0.0032,-0.03879 -0.0011,0.01277 -0.002,0.0261 -0.0032,0.03879 z m 0.02631,-0.349628 c 0.01004,-0.160453 0.0166,-0.330138 0.02209,-0.503497 -0.0054,0.173594 -0.01229,0.342259 -0.02209,0.503497 z m 0.03041,-0.818731 c 0.0084,-0.445343 0.009,-0.927414 0.009,-1.474863 0,-1.23742 0.004,-2.180702 -0.103476,-2.980489 -0.107528,-0.7997858 -0.358073,-1.5045988 -0.884766,-2.0312688 -0.526675,-0.526687 -1.231484,-0.777236 -2.031269,-0.884766 -0.799786,-0.10753 -1.743057,-0.103476 -2.980489,-0.103476 -0.549607,0 -1.0335619,5.38e-4 -1.4803119,0.0091 0.00187,-3.6e-5 0.00358,-8.2e-5 0.00545,-1.17e-4 0.08498,-0.410424 0.207881,-0.644417 0.402598,-0.839122 0.242138,-0.242153 0.5420159,-0.374281 1.1718749,-0.458964 0.62986,-0.08468 1.541917,-0.08988 2.779336,-0.08988 1.237432,0 2.151355,0.0052 2.781211,0.08988 0.629858,0.08472 0.927779,0.216856 1.169941,0.459023 0.242148,0.242138 0.374283,0.54008 0.458965,1.169941 0.08468,0.629861 0.08988,1.543791 0.08988,2.7812108 0,1.237433 -0.0052,2.149479 -0.08988,2.779336 -0.08466,0.629839 -0.216783,0.929697 -0.458944,1.171857 -0.194724,0.194725 -0.428704,0.317623 -0.83912,0.402598 z M 7.5597671,7.5462322 c 0.00674,-0.0012 0.013447,-0.0024 0.020332,-0.0033 0.00631,-8.49e-4 0.013176,-0.0013 0.019511,-0.0022 -0.00637,8.4e-4 -0.013156,0.0014 -0.019511,0.0022 -0.00688,9.26e-4 -0.013462,0.0023 -0.020332,0.0033 z m 0.355605,-0.04084 c 0.015749,-0.0015 0.032292,-0.0025 0.048164,-0.0039 -0.015844,0.0014 -0.032436,0.0024 -0.048164,0.0039 z m 0.351445,-0.02649 c 0.16231,-0.0099 0.332178,-0.01684 0.507012,-0.02221 -0.174663,0.0055 -0.345441,0.01209 -0.507012,0.02221 z" />
  </symbol>

  <symbol id="unmaximized" viewBox="0 0 24 24">
    <path d="m 12,4.5605469 c -1.576846,0 -2.77368,-0.00498 -3.7695312,0.1289062 C 7.2346175,4.8233417 6.391887,5.1276442 5.7597656,5.7597656 5.1276432,6.391886 4.8233417,7.234617 4.6894531,8.2304688 4.5555645,9.2263205 4.5605469,10.423153 4.5605469,12 c 0,1.576829 -0.00498,2.773677 0.1289062,3.769531 0.1338886,0.995855 0.4381772,1.838595 1.0703125,2.470703 0.6321189,0.632134 1.4748499,0.936421 2.4707032,1.070313 C 9.226322,19.444439 10.423154,19.439453 12,19.439453 c 1.576829,0 2.773675,0.005 3.769531,-0.128906 0.995857,-0.133892 1.838597,-0.438165 2.470703,-1.070313 0.632148,-0.632106 0.936421,-1.474846 1.070313,-2.470703 0.133891,-0.995856 0.128906,-2.192702 0.128906,-3.769531 0,-1.576847 0.005,-2.7736782 -0.128906,-3.7695312 C 19.176655,7.2346157 18.872368,6.3918855 18.240234,5.7597656 17.608127,5.1276294 16.765386,4.8233416 15.769531,4.6894531 14.773676,4.5555646 13.576829,4.5605469 12,4.5605469 Z m 0,1.5 c 1.576829,0 2.744386,0.00419 3.570313,0.1152343 0.825926,0.1110424 1.261803,0.2969439 1.609374,0.6445313 0.347611,0.3476036 0.533487,0.7834543 0.644532,1.609375 0.111044,0.8259207 0.115234,1.9934655 0.115234,3.5703125 0,1.576829 -0.0042,2.744388 -0.115234,3.570313 -0.111045,0.825924 -0.296935,1.261801 -0.644532,1.609374 -0.347574,0.347597 -0.78345,0.533487 -1.609374,0.644532 -0.825925,0.111044 -1.993484,0.115234 -3.570313,0.115234 -1.576846,0 -2.7443916,-0.0042 -3.5703125,-0.115234 C 7.6037666,17.713174 7.167914,17.527297 6.8203125,17.179687 6.4727242,16.832114 6.2868236,16.396239 6.1757812,15.570313 6.0647389,14.744386 6.0605469,13.576829 6.0605469,12 c 0,-1.576847 0.00419,-2.7443897 0.1152343,-3.5703125 C 6.2868235,7.6037647 6.4727113,7.1679125 6.8203125,6.8203125 7.1679146,6.4727104 7.6037653,6.2868235 8.4296875,6.1757812 9.2556097,6.064739 10.423154,6.0605469 12,6.0605469 Z" />
  </symbol>

  <symbol id="sidebar" viewBox="0 0 24 24">
    <path fill-rule="evenodd" clip-rule="evenodd" d="m 14.05642,2.25 c 1.83775,-2e-5 3.29339,-3e-5 4.4326,0.15314 1.17242,0.15762 2.12137,0.48974 2.86974,1.2381 0.74836,0.74837 1.08048,1.69732 1.2381,2.86974 0.15317,1.13921 0.15316,2.59484 0.15314,4.43262 v 2.1128 c 2e-5,1.8378 3e-5,3.2934 -0.15314,4.4326 -0.15762,1.1724 -0.48974,2.1214 -1.2381,2.8698 -0.74837,0.7483 -1.69732,1.0804 -2.86974,1.2381 C 17.34982,21.75 15.8942,21.75 14.05646,21.75 H 9.9435995 c -0.3142,0 -0.6174,0 -0.9096,-8e-4 -0.0113,5e-4 -0.0226,8e-4 -0.034,8e-4 -0.0129,0 -0.0257,-3e-4 -0.0384,-0.001 -1.384,-0.0042 -2.5223,-0.0273 -3.4506,-0.1521 -1.1724,-0.1577 -2.1214,-0.4898 -2.8698,-1.2381 -0.7483,-0.7484 -1.0804,-1.6974 -1.2381,-2.8698 -0.1531,-1.1392 -0.1531,-2.5948 -0.1531,-4.4325 v -2.1129 c 0,-1.83775 0,-3.29342 0.1531,-4.43262 0.1577,-1.17242 0.4898,-2.12137 1.2381,-2.86974 0.7484,-0.74836 1.6974,-1.08048 2.8698,-1.2381 0.9283,-0.12481 2.0666,-0.14791 3.4506,-0.15218 0.0127,-6.4e-4 0.0255,-9.6e-4 0.0384,-9.6e-4 0.0114,0 0.0227,2.5e-4 0.034,7.6e-4 0.2923,-7.6e-4 0.5953,-7.6e-4 0.9096,-7.6e-4 z M 9.7499995,3.75002 c 0.0823,-2e-5 0.1656,-2e-5 0.25,-2e-5 H 14 c 1.90682,0 3.26149,0.00159 4.28915,0.13976 1.00609,0.13527 1.58574,0.38893 2.00895,0.81214 0.42321,0.42321 0.67687,1.00286 0.81214,2.00895 C 21.24841,7.73851 21.25,9.09318 21.25,11 v 2 c 0,1.9068 -0.0016,3.2615 -0.13976,4.2892 -0.13527,1.006 -0.38893,1.5857 -0.81214,2.0089 -0.42321,0.4232 -1.00286,0.6769 -2.00895,0.8121 C 17.26149,20.2484 15.90682,20.25 14,20.25 H 9.9999995 c -0.0844,0 -0.1677,0 -0.25,0 z m -1.5,16.49428 c -1.0336,-0.0109 -1.8582,-0.0425 -2.5392,-0.1341 -1.006,-0.1352 -1.5857,-0.3889 -2.0089,-0.8121 -0.4232,-0.4232 -0.6769,-1.0029 -0.8121,-2.0089 -0.1382,-1.0277 -0.1398,-2.3824 -0.1398,-4.2892 v -2 c 0,-1.90682 0.0016,-3.26149 0.1398,-4.28915 0.1352,-1.00609 0.3889,-1.58574 0.8121,-2.00895 0.4232,-0.42321 1.0029,-0.67687 2.0089,-0.81214 0.681,-0.09155 1.5056,-0.12314 2.5392,-0.13403 z" />
  </symbol>

  <symbol id="drag" viewBox="0 0 24 24">
    <path d="m 14.2,18.2 c 0,0.5523 0.4477,1 1,1 0.5523,0 1,-0.4477 1,-1 0,-0.5523 -0.4477,-1 -1,-1 -0.5523,0 -1,0.4477 -1,1 z" />
    <path d="m 7.8,18.2 c 0,0.5523 0.4477,1 1,1 0.5523,0 1,-0.4477 1,-1 0,-0.5523 -0.4477,-1 -1,-1 -0.5523,0 -1,0.4477 -1,1 z" />
    <path d="m 15.2,13 c -0.5523,0 -1,-0.4477 -1,-1 0,-0.5523 0.4477,-1 1,-1 0.5523,0 1,0.4477 1,1 0,0.5523 -0.4477,1 -1,1 z" />
    <path d="m 8.8,13 c -0.5523,0 -1,-0.4477 -1,-1 0,-0.5523 0.4477,-1 1,-1 0.5523,0 1,0.4477 1,1 0,0.5523 -0.4477,1 -1,1 z" />
    <path d="m 14.2,5.8 c 0,0.55229 0.4477,1 1,1 0.5523,0 1,-0.44771 1,-1 0,-0.55228 -0.4477,-1 -1,-1 -0.5523,0 -1,0.44772 -1,1 z" />
    <path d="m 7.8,5.8 c 0,0.55229 0.4477,1 1,1 0.5523,0 1,-0.44771 1,-1 0,-0.55228 -0.4477,-1 -1,-1 -0.5523,0 -1,0.44772 -1,1 z" />
  </symbol>

  <symbol id="header" viewBox="0 0 24 24">
    <path d="M11.9426 1.25C9.63423 1.24999 7.82519 1.24998 6.4137 1.43975C4.96897 1.63399 3.82895 2.03933 2.93414 2.93414C2.03933 3.82895 1.63399 4.96897 1.43975 6.41371C1.24998 7.82519 1.24999 9.63423 1.25 11.9426V12.0574C1.24999 14.3658 1.24998 16.1748 1.43975 17.5863C1.63399 19.031 2.03933 20.1711 2.93414 21.0659C3.82895 21.9607 4.96897 22.366 6.4137 22.5603C7.82519 22.75 9.63423 22.75 11.9426 22.75H12.0574C14.3658 22.75 16.1748 22.75 17.5863 22.5603C19.031 22.366 20.1711 21.9607 21.0659 21.0659C21.9607 20.1711 22.366 19.031 22.5603 17.5863C22.75 16.1748 22.75 14.3658 22.75 12.0574V11.9426C22.75 9.63423 22.75 7.82519 22.5603 6.41371C22.366 4.96897 21.9607 3.82895 21.0659 2.93414C20.1711 2.03933 19.031 1.63399 17.5863 1.43975C16.1748 1.24998 14.3658 1.24999 12.0574 1.25H11.9426ZM3.9948 3.9948C4.56445 3.42514 5.33517 3.09825 6.61358 2.92637C7.91356 2.75159 9.62177 2.75 12 2.75C14.3782 2.75 16.0864 2.75159 17.3864 2.92637C18.6648 3.09825 19.4355 3.42514 20.0052 3.9948C20.5749 4.56445 20.9018 5.33517 21.0736 6.61358C21.2484 7.91356 21.25 9.62178 21.25 12C21.25 14.3782 21.2484 16.0864 21.0736 17.3864C20.9018 18.6648 20.5749 19.4355 20.0052 20.0052C19.4355 20.5749 18.6648 20.9018 17.3864 21.0736C16.0864 21.2484 14.3782 21.25 12 21.25C9.62177 21.25 7.91356 21.2484 6.61358 21.0736C5.33517 20.9018 4.56445 20.5749 3.9948 20.0052C3.42514 19.4355 3.09825 18.6648 2.92637 17.3864C2.75159 16.0864 2.75 14.3782 2.75 12C2.75 9.62178 2.75159 7.91356 2.92637 6.61358C3.09825 5.33517 3.42514 4.56445 3.9948 3.9948Z" />
    <path d="m 8,11.88 c 0,-0.4142 0.33579,-0.75 0.75,-0.75 h 6.5 c 0.4142,0 0.75,0.3358 0.75,0.75 0,0.4142 -0.3358,0.75 -0.75,0.75 H 8.75 C 8.33579,12.63 8,12.2942 8,11.88 Z" />
    <path d="m 8.75,7.13 c 0.4142,0 0.75,0.33579 0.75,0.75 v 8 c 0,0.4142 -0.3358,0.75 -0.75,0.75 C 8.3358,16.63 8,16.2942 8,15.88 v -8 C 8,7.46579 8.3358,7.13 8.75,7.13 Z" />
    <path d="m 15.25,7.13 c 0.4142,0 0.75,0.33579 0.75,0.75 v 8 c 0,0.4142 -0.3358,0.75 -0.75,0.75 -0.4142,0 -0.75,-0.3358 -0.75,-0.75 v -8 c 0,-0.41421 0.3358,-0.75 0.75,-0.75 z" /> </symbol>
</svg>
