<?xml version="1.0" encoding="UTF-8" standalone="no"?>
<!-- Created with Inkscape (http://www.inkscape.org/) -->

<svg
   width="1024"
   height="1024"
   viewBox="0 0 1024 1024"
   version="1.1"
   id="svg1"
   inkscape:version="1.4 (unknown)"
   sodipodi:docname="icon.svg"
   xmlns:inkscape="http://www.inkscape.org/namespaces/inkscape"
   xmlns:sodipodi="http://sodipodi.sourceforge.net/DTD/sodipodi-0.dtd"
   xmlns="http://www.w3.org/2000/svg"
   xmlns:svg="http://www.w3.org/2000/svg">
  <sodipodi:namedview
     id="namedview1"
     pagecolor="#ffffff"
     bordercolor="#000000"
     borderopacity="0.25"
     inkscape:showpageshadow="2"
     inkscape:pageopacity="0.0"
     inkscape:pagecheckerboard="0"
     inkscape:deskcolor="#d1d1d1"
     inkscape:document-units="px"
     inkscape:zoom="0.26614466"
     inkscape:cx="56.360328"
     inkscape:cy="332.52593"
     inkscape:window-width="1916"
     inkscape:window-height="1048"
     inkscape:window-x="2"
     inkscape:window-y="30"
     inkscape:window-maximized="1"
     inkscape:current-layer="layer1" />
  <defs
     id="defs1" />
  <g
     inkscape:label="Capa 1"
     inkscape:groupmode="layer"
     id="layer1">
    <rect
       style="fill:#7b8088;fill-opacity:1;stroke:none;stroke-width:30;stroke-linecap:round;stroke-dasharray:none;stroke-opacity:1"
       id="rect100"
       width="1024"
       height="1024"
       x="0"
       y="0"
       rx="256"
       ry="256"
       inkscape:export-filename="96.png"
       inkscape:export-xdpi="9"
       inkscape:export-ydpi="9" />
    <g
       id="g118">
      <path
         id="path100"
         style="fill:#e6ebed;fill-opacity:1;stroke:none;stroke-width:3.12135;stroke-dasharray:none;stroke-opacity:1"
         d="m 660.70703,554.37696 c -4.59354,0.026 -7.13867,0.12109 -7.13867,0.12109 -44.61761,-0.9493 -79.36682,162.22806 -82.02734,173.41601 -2.66071,11.18771 -17.55444,81.61351 72.31442,164.41404 64.04028,59.00337 175.21022,60.80152 251.12306,-15.11132 75.91281,-75.91281 61.88314,-184.20625 -8.27345,-256.5215 -61.38676,-63.27559 -193.84327,-66.50076 -225.99802,-66.31832 z m -11.10351,49.93359 c 0,0 2.4436,0.24162 5.83202,0.61718 a 168.52455,144.01189 45 0 0 -22.81835,16.21485 c 4.03171,-10.28805 9.5007,-16.99132 16.98633,-16.83203 z" />
      <path
         style="fill:#999999;fill-opacity:0.376014;stroke:none;stroke-width:0.264;stroke-dasharray:none;stroke-opacity:1"
         d="m 597.7461,716.00749 c 15.96558,128.29673 157.63889,216.11366 295.23239,163.20929 -22.29886,22.0673 -50.60661,38.94597 -77.71479,47.26433 -47.15605,15.40021 -92.98591,9.44851 -126.92899,-5.31456 -44.05237,-16.96595 -92.28414,-74.80627 -107.4578,-114.06389 z"
         id="path117"
         sodipodi:nodetypes="cccccc" />
      <path
         id="path102"
         style="fill:#e6ebed;fill-opacity:1;stroke:none;stroke-width:3.12135;stroke-dasharray:none;stroke-opacity:1"
         d="M 267.03906,77.275387 C 224.26577,76.816948 181.56656,92.63657 145.98242,128.2207 70.069583,204.13354 71.867766,315.30352 130.8711,379.34375 c 82.80053,89.86889 153.22634,74.97713 164.41406,72.31641 11.18795,-2.66051 174.3653,-37.40974 173.41602,-82.02734 0,0 6.11793,-162.98213 -66.19728,-233.13868 C 364.08657,99.223585 315.51547,77.794962 267.03906,77.275387 Z" />
      <path
         style="fill:#ffffff;fill-opacity:0.681189;stroke:none;stroke-width:3.06408;stroke-dasharray:none;stroke-opacity:1"
         d="M 944.98222,775.74437 C 870.49608,606.48306 738.37185,622.84846 636.07444,613.88404 l 13.75564,-59.10279 c 2.90434,-0.54098 7.18983,-0.26926 10.91703,-0.43765 65.21686,0.26846 127.7163,10.36425 174.36616,31.52259 20.96934,9.04714 39.47053,22.59824 49.65339,32.90394 13.12495,13.02311 23.09547,26.54915 30.35022,37.82778 32.38041,51.74509 32.31733,95.72991 29.86534,119.14646 z"
         id="path103"
         sodipodi:nodetypes="cccccccc" />
      <path
         style="fill:#999999;fill-opacity:0.376014;stroke:none;stroke-width:0.264;stroke-dasharray:none;stroke-opacity:1"
         d="M 307.19171,425.45309 C 178.89498,409.48751 91.078053,267.8142 143.98242,130.2207 c -22.0673,22.29886 -38.94597,50.60661 -47.264327,77.71479 -15.400215,47.15605 -9.448514,92.98591 5.314557,126.92899 16.96595,44.05237 74.80627,92.28414 114.06389,107.4578 z"
         id="path104"
         sodipodi:nodetypes="cccccc" />
      <path
         style="fill:#ffffff;fill-opacity:0.681189;stroke:none;stroke-width:3.06408;stroke-dasharray:none;stroke-opacity:1"
         d="M 253.01976,77.715295 C 420.57895,155.95525 401.37843,288.38506 408.06072,390.85685 l 58.97281,-12.54437 c 0.9962,-3.14156 1.4187,-3.82313 1.6545,-8.0769 1.1851,-65.20664 -9.12954,-130.32136 -29.24294,-177.43119 -12.43181,-29.30377 -26.82108,-45.88613 -31.27907,-50.48801 -7.00042,-8.1537 -25.17784,-23.68587 -36.92099,-31.20784 C 320.23445,77.582928 276.33432,75.974325 253.01976,77.715295 Z"
         id="path118"
         sodipodi:nodetypes="cccccccc" />
      <path
         style="fill:#2f353e;fill-opacity:1;stroke:none;stroke-width:3.06408;stroke-dasharray:none"
         d="m 136.91612,812.41835 c 0,0 -53.624179,92.62359 -37.916085,111.58163 15.708095,18.95805 113.498215,-34.87443 113.498215,-34.87443 -45.61551,-29.65439 -58.7255,-51.40253 -75.58213,-76.7072 z"
         id="path114"
         sodipodi:nodetypes="cscc" />
      <path
         id="path106"
         style="fill:#ffcc00;stroke:none;stroke-width:3.98861"
         d="M 433.37305,374.4375 C 341.73619,373.47676 241.02534,411.18947 175.00391,477.21094 55.894804,596.32004 64.459126,766.45327 163.3789,865.37305 262.29869,964.29283 416.02714,976.03341 551.02929,841.03125 655.03026,737.03028 693.62877,532.96275 594.70898,434.04297 554.52283,393.85681 496.07195,375.09485 433.37305,374.4375 Z" />
      <path
         style="fill:#2f353e;fill-opacity:1;stroke:none;stroke-width:3.06408;stroke-dasharray:none"
         d="m 365.12082,380.52611 278.26905,286.21141 c -6.41367,33.80766 -27.82839,77.05755 -41.20369,106.54028 L 250.17675,421.03738 c 31.7191,-15.08494 80.31027,-34.3668 114.94407,-40.51127 z"
         id="path107"
         sodipodi:nodetypes="ccccc" />
      <path
         style="fill:#2f353e;fill-opacity:1;stroke:none;stroke-width:3.06408;stroke-dasharray:none"
         d="m 636.44442,268.1573 c 7.05807,-19.92223 7.95588,-43.35997 7.95588,-43.35997 0,0 -48.25936,-21.44861 -21.4485,-52.85533 26.81063,-31.40693 48.64224,-20.29964 60.51561,-8.42627 11.87315,11.87315 19.15035,24.51251 11.10716,82.34711 -2.19809,15.80499 -3.69723,33.34371 -11.83339,45.85258 -19.43809,29.88429 -53.25575,-3.91522 -46.29676,-23.55812 z"
         id="path108"
         sodipodi:nodetypes="scsssss" />
      <path
         style="fill:#ffffff;fill-opacity:0.282427;stroke:none;stroke-width:75.37;stroke-dasharray:none;stroke-opacity:1"
         d="M 646.60212,535.16075 C 568.95847,417.37673 335.50706,417.90656 216.09654,442.32228 c 101.97711,-72.55341 252.66309,-90.15911 336.1982,-39.67932 83.59955,47.32073 93.4884,128.65709 94.30738,132.51779 z"
         id="path109"
         sodipodi:nodetypes="cccc" />
      <path
         style="fill:#2f353e;fill-opacity:1;stroke:none;stroke-width:3.06408;stroke-dasharray:none"
         d="m 755.62313,387.33602 c 20.80788,-3.70707 43.35976,-7.9561 43.35976,-7.9561 0,0 21.44861,48.25936 52.85555,21.44872 31.40671,-26.81085 20.29942,-48.64246 8.42627,-60.51561 -11.87337,-11.87337 -24.51273,-19.15057 -82.34733,-11.10738 -15.80498,2.19809 -34.62113,2.00897 -45.85236,11.83361 -31.50987,27.56357 -6.37586,51.62947 23.55811,46.29676 z"
         id="path110"
         sodipodi:nodetypes="scsssss" />
      <path
         id="path111"
         style="fill:#e6ebed;fill-opacity:1;stroke:none;stroke-width:2.34698;stroke-dasharray:none;stroke-opacity:1"
         d="m 605.45312,256.24804 c -38.11929,-0.6773 -71.26168,12.15428 -88.32422,29.2168 -43.09323,43.09324 -47.12695,91.00195 -47.12695,91.00195 l 87.21094,99.66993 93.16406,77.45703 c 0,0 35.53143,0.0164 88.56641,-38.19141 37.78124,-27.2189 60.2597,-131.75788 -15.30273,-207.32031 -36.97166,-36.97165 -80.06821,-51.15667 -118.18751,-51.83399 z" />
      <path
         style="fill:#2f353e;fill-opacity:1;stroke:none;stroke-width:3.06408;stroke-dasharray:none"
         d="m 102.47775,591.31339 338.14698,327.45764 c 32.11358,-13.55999 64.98064,-35.67716 98.60118,-66.35151 L 164.47999,488.22716 c -28.61873,31.66688 -49.28615,66.02895 -62.00224,103.08623 z"
         id="path112"
         sodipodi:nodetypes="ccccc" />
      <circle
         style="fill:#2f353e;fill-opacity:1;stroke:none;stroke-width:4.46844;stroke-dasharray:none;stroke-opacity:1"
         id="circle112"
         cx="649.40198"
         cy="-182.20074"
         r="26.810722"
         transform="rotate(45)" />
      <circle
         style="fill:#2f353e;fill-opacity:1;stroke:none;stroke-width:4.46844;stroke-dasharray:none;stroke-opacity:1"
         id="circle113"
         cx="796.52002"
         cy="-180.27869"
         r="26.810722"
         transform="rotate(45)" />
      <path
         style="fill:#000000;fill-opacity:0.180934;stroke:none;stroke-width:69.9481;stroke-dasharray:none;stroke-opacity:1"
         d="m 89.216547,711.22095 c 49.608593,118.82728 231.806803,214.54892 400.143663,180.79221 -10.87424,7.24431 -28.75276,18.09438 -48.30409,26.59705 -18.23254,7.92915 -34.29397,12.69841 -45.15551,15.34593 -46.81087,11.47941 -90.21918,8.41797 -129.32528,-4.30402 -38.8686,-12.64473 -73.49012,-34.82848 -101.99025,-63.24575 -19.38404,-18.96153 -34.05271,-39.86347 -46.20145,-61.73594 -4.89922,-9.60648 -9.17487,-18.41005 -12.40991,-26.70367 -4.66771,-11.96653 -7.888957,-22.54837 -10.24482,-31.61733 -4.538222,-17.47 -5.685139,-29.37887 -6.512353,-35.12848 z"
         id="path113"
         sodipodi:nodetypes="ccscsccssc" />
      <path
         style="fill:#ffffff;fill-opacity:0.681189;stroke:none;stroke-width:75.37;stroke-dasharray:none;stroke-opacity:1"
         d="m 748.37864,338.87795 c -128.46142,-97.28345 -198.34419,-55.25473 -271.52269,9.76328 0.15419,-6.35418 23.07981,-51.01826 43.13825,-65.86867 24.38885,-21.09464 75.11791,-36.37169 131.33489,-19.12296 60.26503,19.03647 89.56729,64.34618 97.04955,75.22835 z"
         id="path115"
         sodipodi:nodetypes="ccccc" />
      <path
         style="fill:#000000;fill-opacity:0.111644;stroke:none;stroke-width:75.37;stroke-dasharray:none;stroke-opacity:1"
         d="m 603.79492,514.86524 c 42.8072,20.29551 93.11462,10.39883 166.29312,-54.61918 -0.51706,5.38315 -8.81095,35.18407 -26.76199,51.59153 -25.78161,20.73715 -67.23213,41.19209 -92.9491,41.75616 z"
         id="path116"
         sodipodi:nodetypes="ccccc" />
    </g>
  </g>
</svg>
